<?xml version="1.0" encoding="UTF-8" standalone="no"?>
<!DOCTYPE svg PUBLIC "-//W3C//DTD SVG 1.1//EN" "http://www.w3.org/Graphics/SVG/1.1/DTD/svg11.dtd">
<svg width="100%" height="100%" viewBox="0 0 2831 894" version="1.1" xmlns="http://www.w3.org/2000/svg" xmlns:xlink="http://www.w3.org/1999/xlink" xml:space="preserve" xmlns:serif="http://www.serif.com/" style="fill-rule:evenodd;clip-rule:evenodd;stroke-linejoin:round;stroke-miterlimit:2;">
    <g transform="matrix(1,0,0,1,7946.75,-15986.4)">
        <g transform="matrix(10,2.44929e-15,-2.44929e-15,10,-140921,1237.26)">
            <g transform="matrix(1,0,0,1,153.77,277.347)">
                <g transform="matrix(1,6.01506e-30,6.08902e-30,1,196.428,-64.9827)">
                    <path d="M13230.2,1262.55L13230.2,1351.9L12996.9,1351.9C12969.4,1351.9 12947.2,1329.67 12947.2,1302.24C12947.2,1281.68 12947.2,1262.55 12947.2,1262.55L13230.2,1262.55Z" style="fill:rgb(255,0,0);"/>
                </g>
                <g transform="matrix(1,0,0,1,161.293,-29.4483)">
                    <g transform="matrix(0.925142,0,0,0.925142,986.41,80.3189)">
                        <g transform="matrix(0.75078,0,0,1,3240.49,0)">
                            <g transform="matrix(33.7263,0,0,33.7263,13313.8,1279.01)">
                            </g>
                            <text x="13002.5px" y="1279.01px" style="font-family:'Arial-Black', 'Arial Black', sans-serif;font-weight:900;font-size:33.726px;fill:white;">Mit gar<tspan x="13132.3px 13154.8px " y="1279.01px 1279.01px ">an</tspan>tier<tspan x="13242.6px 13257.6px " y="1279.01px 1279.01px ">te</tspan>m</text>
                        </g>
                    </g>
                    <g transform="matrix(0.925142,0,0,0.925142,887.292,105.261)">
                        <g transform="matrix(0.75078,0,0,1,3276.51,0)">
                            <g transform="matrix(33.7263,0,0,33.7263,13357.6,1293.28)">
                            </g>
                            <text x="13147px" y="1293.28px" style="font-family:'Arial-Black', 'Arial Black', sans-serif;font-weight:900;font-size:33.726px;fill:white;">CASHB<tspan x="13277.6px 13303.2px 13329.5px " y="1293.28px 1293.28px 1293.28px ">ACK</tspan></text>
                        </g>
                    </g>
                </g>
            </g>
        </g>
    </g>
</svg>
