<?xml version="1.0" encoding="UTF-8" standalone="no"?>
<!DOCTYPE svg PUBLIC "-//W3C//DTD SVG 1.1//EN" "http://www.w3.org/Graphics/SVG/1.1/DTD/svg11.dtd">
<svg width="100%" height="100%" viewBox="0 0 2831 894" version="1.1" xmlns="http://www.w3.org/2000/svg" xmlns:xlink="http://www.w3.org/1999/xlink" xml:space="preserve" xmlns:serif="http://www.serif.com/" style="fill-rule:evenodd;clip-rule:evenodd;stroke-linejoin:round;stroke-miterlimit:2;">
    <g transform="matrix(1,0,0,1,22933.8,-13841.7)">
        <g transform="matrix(10,2.44929e-15,-2.44929e-15,10,-152832,1237.26)">
            <g transform="matrix(1,0,0,1,-3.63798e-12,26.1075)">
                <g transform="matrix(1,0,0,1,42.6579,-28.2104)">
                    <path d="M13180.5,1262.55C13207.9,1262.55 13230.2,1284.82 13230.2,1312.29L13230.2,1351.9L12947.2,1351.9L12947.2,1262.55L13180.5,1262.55Z" style="fill:rgb(255,0,0);"/>
                </g>
                <g>
                    <g transform="matrix(0.925142,0,0,0.925142,986.41,80.3189)">
                        <g transform="matrix(0.75078,0,0,1,3240.49,0)">
                            <g transform="matrix(33.7263,0,0,33.7263,13103.7,1279.01)">
                            </g>
                            <text x="13002.5px" y="1279.01px" style="font-family:'Arial-Black', 'Arial Black', sans-serif;font-weight:900;font-size:33.726px;fill:white;">Lokal</text>
                        </g>
                    </g>
                    <g transform="matrix(0.925142,0,0,0.925142,922.756,116.8)">
                        <g transform="matrix(0.75078,0,0,1,3266.65,0)">
                            <g transform="matrix(33.7263,0,0,33.7263,13137.5,1268.52)">
                            </g>
                            <text x="13107.5px" y="1268.52px" style="font-family:'Arial-Black', 'Arial Black', sans-serif;font-weight:900;font-size:33.726px;fill:white;">&amp;</text>
                        </g>
                    </g>
                    <g transform="matrix(0.925142,0,0,0.925142,877.164,120.672)">
                        <g transform="matrix(0.75078,0,0,1,3276.51,0)">
                            <g transform="matrix(33.7263,0,0,33.7263,13386.8,1293.28)">
                            </g>
                            <text x="13147px" y="1293.28px" style="font-family:'Arial-Black', 'Arial Black', sans-serif;font-weight:900;font-size:33.726px;fill:white;">Pr<tspan x="13186.9px 13209.4px 13222px 13244.4px " y="1293.28px 1293.28px 1293.28px 1293.28px ">ofes</tspan>sionell</text>
                        </g>
                    </g>
                </g>
            </g>
        </g>
    </g>
</svg>
