<?xml version="1.0" encoding="UTF-8" standalone="no"?>
<!DOCTYPE svg PUBLIC "-//W3C//DTD SVG 1.1//EN" "http://www.w3.org/Graphics/SVG/1.1/DTD/svg11.dtd">
<svg width="100%" height="100%" viewBox="0 0 585 83" version="1.1" xmlns="http://www.w3.org/2000/svg" xmlns:xlink="http://www.w3.org/1999/xlink" xml:space="preserve" xmlns:serif="http://www.serif.com/" style="fill-rule:evenodd;clip-rule:evenodd;stroke-linejoin:round;stroke-miterlimit:2;">
    <g transform="matrix(1,0,0,1,-351.77,-2202.1)">
        <g transform="matrix(1,0,0,1,-798.124,-717.868)">
            <g transform="matrix(0.797362,0,0,0.797362,161.04,951.032)">
                <circle cx="1272.06" cy="2541.24" r="31.907" style="fill:white;"/>
            </g>
            <g transform="matrix(1.24861,0,5.0307e-17,0.801609,-34.4275,811.32)">
                <path d="M1221.7,2640.47L1221.7,2660.37C1221.7,2665.87 1218.84,2670.32 1215.31,2670.32L1052.8,2670.32C1049.28,2670.32 1046.41,2665.87 1046.41,2660.37L1046.41,2640.47C1046.41,2634.98 1049.28,2630.52 1052.8,2630.52L1215.31,2630.52C1218.84,2630.52 1221.7,2634.98 1221.7,2640.47Z" style="fill:white;"/>
            </g>
            <g transform="matrix(-1.24861,-6.245e-17,-5.55112e-17,0.801609,3040.51,811.32)">
                <path d="M1221.7,2640.47L1221.7,2660.37C1221.7,2665.87 1218.84,2670.32 1215.31,2670.32L1052.8,2670.32C1049.28,2670.32 1046.41,2665.87 1046.41,2660.37L1046.41,2640.47C1046.41,2634.98 1049.28,2630.52 1052.8,2630.52L1215.31,2630.52C1218.84,2630.52 1221.7,2634.98 1221.7,2640.47Z" style="fill:white;"/>
            </g>
        </g>
    </g>
</svg>
