<?xml version="1.0" encoding="UTF-8" standalone="no"?>
<!DOCTYPE svg PUBLIC "-//W3C//DTD SVG 1.1//EN" "http://www.w3.org/Graphics/SVG/1.1/DTD/svg11.dtd">
<svg width="100%" height="100%" viewBox="0 0 531 170" version="1.1" xmlns="http://www.w3.org/2000/svg" xmlns:xlink="http://www.w3.org/1999/xlink" xml:space="preserve" xmlns:serif="http://www.serif.com/" style="fill-rule:evenodd;clip-rule:evenodd;stroke-linejoin:round;stroke-miterlimit:2;">
    <g transform="matrix(1,0,0,1,-1942.82,-1338.15)">
        <g transform="matrix(0.535888,0,0,0.535888,1287.59,1324.07)">
            <g>
                <g transform="matrix(0.991597,0,0,0.94709,17.1858,13.7894)">
                    <path d="M2214.24,26.398L2214.24,333.987C2214.24,341.276 2208.59,347.185 2201.63,347.185L1228.33,347.185C1221.37,347.185 1215.73,341.276 1215.73,333.987L1215.73,26.398C1215.73,19.109 1221.37,13.2 1228.33,13.2L2201.63,13.2C2208.59,13.2 2214.24,19.109 2214.24,26.398ZM2201.63,26.398L1228.33,26.398L1228.33,333.987L2201.63,333.987L2201.63,26.398Z" style="fill:white;"/>
                </g>
                <path d="M2114.86,204.388L1320.65,204.388L1320.65,259.203L1368.23,259.203L1368.23,309.092L1255.83,309.092C1255.83,309.092 1255.83,196.021 1255.83,122.182C1255.83,87.731 1283.75,59.804 1318.2,59.804C1342.18,59.804 1363.92,59.804 1363.92,59.804L1363.92,109.692L1320.65,109.692L1320.65,156.963L2114.86,156.963L2114.86,109.692L2071.59,109.692L2071.59,59.804L2179.68,59.804L2179.68,246.656C2179.68,263.215 2173.11,279.096 2161.4,290.805C2149.69,302.514 2133.81,309.092 2117.25,309.092C2091.37,309.092 2067.28,309.092 2067.28,309.092L2067.28,259.203L2114.86,259.203L2114.86,204.388Z" style="fill:white;"/>
                <path d="M1892.98,59.804L1941.48,59.804C1972.79,59.804 1993.96,61.241 2005,64.115C2016.03,66.99 2024.43,71.712 2030.17,78.281C2035.92,84.851 2039.52,92.165 2040.95,100.223C2042.39,108.281 2043.11,124.115 2043.11,147.725L2043.11,235.029C2043.11,257.407 2042.06,272.368 2039.95,279.913C2037.85,287.458 2034.18,293.361 2028.94,297.621C2023.71,301.881 2017.24,304.857 2009.54,306.551C2001.84,308.245 1990.24,309.092 1974.74,309.092L1892.98,309.092L1892.98,59.804ZM1957.81,102.456L1957.81,266.44C1967.15,266.44 1972.89,264.567 1975.05,260.82C1977.21,257.073 1978.28,246.885 1978.28,230.256L1978.28,133.405C1978.28,122.113 1977.92,114.876 1977.21,111.694C1976.49,108.512 1974.85,106.177 1972.28,104.688C1969.71,103.2 1964.89,102.456 1957.81,102.456Z" style="fill:rgb(105,186,201);fill-rule:nonzero;"/>
                <path d="M1844.79,59.804L1881.89,309.092L1815.53,309.092L1812.3,264.285L1789.05,264.285L1785.2,309.092L1718.06,309.092L1751.02,59.804L1844.79,59.804ZM1810.45,220.093C1807.16,191.864 1803.88,157.014 1800.6,115.544C1794.03,163.174 1789.92,198.024 1788.28,220.093L1810.45,220.093Z" style="fill:rgb(105,186,201);fill-rule:nonzero;"/>
                <path d="M1706.82,59.804L1706.82,309.092L1650.16,309.092L1650.16,140.796L1627.53,309.092L1587.34,309.092L1563.47,144.645L1563.47,309.092L1506.81,309.092L1506.81,59.804L1590.73,59.804C1593.19,74.791 1595.81,92.447 1598.58,112.772L1607.51,176.21L1622.29,59.804L1706.82,59.804Z" style="fill:rgb(105,186,201);fill-rule:nonzero;"/>
                <path d="M1451.68,59.804L1451.68,259.203L1491.1,259.203L1491.1,309.092L1386.86,309.092L1386.86,59.804L1451.68,59.804Z" style="fill:rgb(105,186,201);fill-rule:nonzero;"/>
            </g>
        </g>
    </g>
</svg>
