<?xml version="1.0" encoding="UTF-8" standalone="no"?>
<!DOCTYPE svg PUBLIC "-//W3C//DTD SVG 1.1//EN" "http://www.w3.org/Graphics/SVG/1.1/DTD/svg11.dtd">
<svg width="100%" height="100%" viewBox="0 0 537 523" version="1.1" xmlns="http://www.w3.org/2000/svg" xmlns:xlink="http://www.w3.org/1999/xlink" xml:space="preserve" xmlns:serif="http://www.serif.com/" style="fill-rule:evenodd;clip-rule:evenodd;stroke-linejoin:round;stroke-miterlimit:2;">
    <g transform="matrix(1,0,0,1,-305.786,-147.681)">
        <g transform="matrix(0.865219,0,0,0.854821,-577.036,-224.086)">
            <path d="M1218.97,518.23C1230.42,471.352 1276.56,434.906 1330.63,434.906C1384.71,434.906 1430.84,471.352 1442.29,518.23C1486.08,497.957 1543.34,511.3 1577.06,553.578C1610.77,595.856 1611.04,654.646 1581.53,692.829C1624.68,714.427 1649.95,767.511 1637.92,820.231C1625.88,872.951 1580.09,909.815 1531.84,910.55C1541.86,957.756 1516.11,1010.61 1467.39,1034.07C1418.66,1057.53 1361.29,1044.71 1330.63,1007.45C1299.97,1044.71 1242.6,1057.53 1193.88,1034.07C1145.15,1010.61 1119.41,957.756 1129.43,910.55C1081.17,909.815 1035.38,872.951 1023.34,820.231C1011.31,767.511 1036.58,714.427 1079.73,692.829C1050.22,654.646 1050.49,595.856 1084.21,553.578C1117.92,511.3 1175.18,497.957 1218.97,518.23Z" style="fill:rgb(56,142,60);"/>
        </g>
    </g>
</svg>
