<?xml version="1.0" encoding="UTF-8" standalone="no"?>
<!DOCTYPE svg PUBLIC "-//W3C//DTD SVG 1.1//EN" "http://www.w3.org/Graphics/SVG/1.1/DTD/svg11.dtd">
<svg width="100%" height="100%" viewBox="0 0 2732 2048" version="1.1" xmlns="http://www.w3.org/2000/svg" xmlns:xlink="http://www.w3.org/1999/xlink" xml:space="preserve" xmlns:serif="http://www.serif.com/" style="fill-rule:evenodd;clip-rule:evenodd;stroke-linejoin:round;stroke-miterlimit:2;">
    <g id="simpel" transform="matrix(1,0,0,1,-4.54747e-13,21.6974)">
        <g transform="matrix(1,0,0,1,-0.0212182,-43.2527)">
            <path d="M186.691,959.55C186.593,948.891 191.806,942.883 201.688,940.963L720.845,940.276C778.09,941.282 897.88,798.437 943.891,763.333C954.618,766.639 963.356,771.464 969.373,778.368C1003.51,735.093 1050.84,705.95 1079.83,675.643C1083.28,701.22 1091.9,721.212 1101.05,740.623C1124.58,718.283 1154.08,674.102 1177.85,648.164C1200.9,621.91 1230.74,596.687 1253.53,573.292C1262.29,564.306 1268.84,556.967 1276.34,549.022C1290.18,534.34 1306.52,540.247 1312.37,565.138L1322.7,591.414C1326.84,599.846 1341.6,600.185 1346.63,594.034C1359.04,578.875 1362.86,570.016 1371.34,551.445C1383.51,524.802 1417.68,492.603 1430.28,473.619C1444.79,455.476 1454.57,457.848 1460.04,478.896C1466.97,505.559 1565.22,615.989 1582.19,641.561C1600.07,668.515 1612.71,701.558 1630.3,728.882C1643.11,726.086 1658.09,716.612 1674.16,703.76C1671.6,722.594 1681.12,744.736 1697.5,768.755C1700.01,789.1 1886.07,877.297 1892.01,917.214C1893.83,929.414 1969.12,944.232 1969.12,944.232L1969.69,974.84C1969.69,974.84 1790.2,958.963 1746.72,982.256C1739.44,986.156 1732.18,981.41 1738.27,974.648C1753.46,957.784 1764.15,925.678 1784.91,929.685C1795.91,931.81 1670.42,902.581 1632.71,832.239C1652.59,921.641 1660,975.288 1539.81,963.493C1409.09,950.665 1313.72,947.746 1283.51,970.919C1290.52,959.538 1293.62,947.454 1290.75,937.045C1269.98,861.808 1332.38,772.39 1382.39,725.147C1444.46,634.663 1446.68,585.902 1421.27,556.413C1397.87,582.848 1368.92,614.482 1329.58,640.432L1309.33,634.154C1310.73,676.151 1294.87,701.001 1271.1,734.525C1262.58,746.546 1159.65,954.205 1272.53,1007.09C1257.46,1008.07 1243.37,1007.53 1231.99,1004.62L1106.7,971.712C1090.17,967.277 1085.31,955.977 1087,940.822C1089.79,915.88 1094.04,896.282 1099.43,879.224C1104.05,864.597 1093.52,847.053 1085.93,849.319C1049,860.351 1037.27,819.288 1030.2,768.58L1023.47,753.241C1009.26,764.679 996.887,778.342 987.722,792.547C993.749,803.867 997.74,815.624 999.695,827.818C1004.78,827.813 1009.94,825.797 1015.13,822.709C1008.72,848.738 987.275,865.793 978.073,858.093C958.211,842.161 938.824,842.283 920.757,860.658C865.782,892.347 813.254,927.115 758.9,960.276C739.719,970.37 717.488,975.047 702.546,974.201L220.641,975.253L220.693,1596.11L2511.96,1594.28L2511.89,977.609L1969.69,974.84C1969.54,970.507 1969.33,945.681 1969.12,944.232L2527.83,944.227C2538.48,944.142 2546.1,951.859 2545.29,965.123L2545.2,1610.05C2545.58,1621.2 2539.08,1626.39 2528.03,1627.65L208.547,1629.68C192.129,1630.04 186.245,1621.07 187.31,1605.96L186.691,959.55Z"/>
        </g>
        <g id="Ebene5" transform="matrix(1,0,0,1,6.82121e-13,-84.3736)">
            <g transform="matrix(1.43161,0,0,1.28117,-468.228,198.991)">
                <text x="550.753px" y="839.276px" style="font-family:'HoeflerText-Regular', 'Hoefler Text', serif;font-size:168.669px;">A<tspan x="676.253px 782.188px 889.472px 1000.97px 1147.73px 1250.62px 1375.79px 1509.21px 1634.72px 1782.48px 1904.1px " y="839.276px 839.276px 839.276px 839.276px 839.276px 839.276px 839.276px 839.276px 839.276px 839.276px 839.276px ">LPENFRÜCHTE</tspan></text>
            </g>
            <g transform="matrix(1.04437,0,0,1.04437,-74.1016,262.254)">
                <text x="919.678px" y="1144.82px" style="font-family:'HoeflerText-Regular', 'Hoefler Text', serif;font-size:168.669px;">E<tspan x="1033.66px 1177.32px 1244.24px 1327.35px 1373.69px 1487.33px 1566.74px 1614.6px 1710.86px 1762.27px " y="1144.82px 1144.82px 1144.82px 1144.82px 1144.82px 1144.82px 1144.82px 1144.82px 1144.82px 1144.82px ">mre Balkic</tspan></text>
            </g>
        </g>
        <g transform="matrix(1.93822,0,-0.0655675,1.99392,-2599.36,126.339)">
            <text x="1982.22px" y="668.523px" style="font-family:'SnellRoundhand-Bold', 'Snell Roundhand';font-weight:700;font-style:italic;font-size:39.534px;">since 2008</text>
        </g>
    </g>
</svg>
