<?xml version="1.0" encoding="UTF-8"?>
<svg id="Ebene_1" xmlns="http://www.w3.org/2000/svg" xmlns:xlink="http://www.w3.org/1999/xlink" xmlns:serif="http://www.serif.com/" version="1.1" viewBox="0 0 595.3 841.9">
  <!-- Generator: Adobe Illustrator 29.3.1, SVG Export Plug-In . SVG Version: 2.1.0 Build 151)  -->
  <defs>
    <style>
      .st0 {
        fill: #fff;
      }
    </style>
  </defs>
  <g id="xP2DaV.tif">
    <g>
      <path class="st0" d="M535.3,35.3v590H152.3V35.3h383ZM280.4,71c-40.1-25.9-99.4-12.9-117.5,33.1-7.4,18.8-4.9,46,1.9,64.8s5.1,10.8,5,11.4c0,1.1-1.8,2.5-2.3,3.8-1.5,4.1-1.8,16.5-2.3,21.7s-3.1,9.9,1.6,11.5,6.2-.5,6.9-3.5.9-10,1.7-14.3.4-1.8,1.1-2.4c1.1.7,1.3,2,1.9,2.8,1.6,1.9,8.4,7.4,7.7,9.8s-1.9,1.2-2.7,1.8c-14.7,13-13.5,36,5.3,43.7,3.1,1.3,7.6,2,11,2.2l-2,19-7.5-1.3c-2.6,9.7-5.2,19.3-7.3,29.1s-1.8,6.1-2.1,8.4c-.8,5.7,4.8,9,8,5s5.1-18.4,6.6-23.9,1.9-6.3,2.2-6.3c3.5,1.3,6.3,4.5,9,7l24.5,17.5c-.3,3.4-.5,8.2,4,8.5s4.8-1.2,5.2-3.3.2-9.4-.5-10.5-3.6-3.1-4.6-3.9c-6.1-4.7-13-8.6-19.1-13.3s-7.7-5.6-8.2-9.8.6-6.5.9-10,.4-9.1,1.2-13.3,10.3-6.6,7.4-12.5-1.9-2-2-2.1c-3.4-1.7-9.1,4.5-12.9,5.1-17.9,3-26.2-18.1-12.4-27.9s7.2-2.5,10-2.5,4.7,1.8,7.4,1.4,3.7-2.8,3.8-3.7c1.3-6.8-10.9-7.9-15.4-7.8-.8-3.1-3.4-5.6-4-8.8s.6-6.3.4-9.6c.8-.2,1,.3,1.5.8,2.3,2.4,7.4,10.3,10.4,11.1,4.5,1.2,8.1-2,5.8-6.3s-4.3-6-5.7-7.7c-2.7-3.3-8.3-9.8-11.5-12.6s-2.4-2.4-4.6-2.1c-5,.6-4,7.6-4.9,11.2s.4.9-1,.7c-5.9-10.6-10.7-22.8-12.9-34.9-5.5-31.5,3.5-57.4,31.7-72.4,37.5-20,78.9-4,99.9,30.7,5.4,8.9,9.6,19.1,12.1,29.1-8.5-1.6-17.4-1.8-25.3,1.9s-6.5,5.1-10,7c-17-4.6-34.1.2-45.1,14-11.6,14.6-8.8,35.6,4.7,48.1s23.1,12.1,36.6,9.6.6,0,.6.9c-3.9.9-7.6,2.4-11.3,3.9-15.8,6.7-30.1,13.3-38.3,29.1-17.9,34.4,13.7,59.1,44.4,65.4l18.4.6c1.9.6,1,4.8,6.6,4.4s3-2.8,4-5,8.3-3.1,10.5-4,2.7-2.1,4.5-2.5c4.5,1.5,18.1,12.6,21.9,12.4s5.4-6.9,1.1-10-1.9-1.1-3.1-1.9c-4.5-3.1-9.5-5.4-13.9-8.6-.8-4.2.7-8.6-1.5-12.5s-1.6-1.4-1.9-2.1c-1.4-3,1-7.4,1.6-10.4s.7-7.7,2.7-11c11.2-1.3,25.5-1.1,33.9-9.8s4.2-10,3.5-16-11.8-20.1-15.1-24.9-1-.7-1.2-1c-1.6-2.4.8-5,1.5-7.4,2.5-8.8.3-17.8-7.4-22.9l-.2-.7c6-9.7,6.6-19.7.6-29.6-3-4.9-7.6-8.3-11.4-12.6-5.6-26.8-20.5-54.2-43.9-69.3ZM437.7,245.9c-1.3,1-2.4,2-3.5,3.1-2.9-1.1-2.6-5-5.8-6.1-5.6-1.9-7.1,1.3-10.7,4.2-2.6-3.3-4.1-6.6-9.2-4.6s-2.8,2.5-2.9,2.7c-1,2.2-.9,8.8-1.4,11.6-1.6,9-5.4,17.8-8,26.4s-6.7,22.1-10.7,33.2c-5.6,15.6-11.7,30.9-19.4,45.6-1.2,1.3-6.9,1.5-9.2,2.8s-6.3,6.9-6.9,10.1c-1,4.8-.4,9.1.8,13.7-.5,2.3-8.3,10.2-10.8,10.7s-5.9-.4-8.6.3-8.8,6.2-11.3,6.7-6.5-.9-10.7.2-8.7,5.6-12.5,6.5-9.8,1.3-14.5,2.5c-10.2,2.7-26.6,11.5-33.9,19.1s-5.2,8.5-5.4,11.2.8,1.9.9,2.9-3.7,7.9-4.5,9.9c-4.4,10.3-5.4,23-.4,33.4s7.1,10.8,8.6,12.1,4.9,1.8,6.3,4.4,2.7,7.6,4,11c0,1-2.6,6.7-3.4,7.5-1.5,1.6-4.4,2.4-6.2,3.7-3.6,2.7-3.9,6.2-3.1,10.6s2.2,4.1,2.2,5.1-1.4,2.6-1.7,3.6c-.8,3-.2,4.7-1.6,7.5-2.1,4.2-3.7,7.7-4.5,12.4s1.2,3.8,1.4,6c.5,4.9-4.4,9.9-5,14.9s-.5,10.9,1.4,12.2,9.6,3.8,11.9,4.4c8.1,2.1,21,3,29.4,2.7s12.2-2,18.4-1.4c1.9,2.9,3.4,5.2,6.7,6.8,17.2,8,46.2,8.1,63.7,1.5s16.7-7.3,18.9-11.5c3.4-6.3-4.4-16.5-8.8-20.9s-9.4-6.2-10.1-9.3,0-2.3-.4-3.6c-.8-2.9-4.3-5.7-5.2-8.3-2.3-6.6,1.6-6,5.5-8.5,5.1-3.4,8.1-9.2,9.5-15s1.3-8.5-2.2-13.7-8-7.6-9.9-11.6c-.4-.9-2.5-6-2.7-6.8-.7-2.9,2.7-4.6,4.1-7.2,1.7-3.2,2.5-8.7,4.8-11.1s4.3-1.9,6.2-3c11.9-6.4,15.1-24.8,12.2-37-.4-1.9-3.4-7.5-2.6-8.9s2.7-.5,4-.5c4.8,0,9.4-.8,12-5.4s1-6,4.5-6.9c5.6-1.4,8,2,12.2,4.1,8,4,16.8,7.4,25.5,9.5,7.2,1.7,19.7,5.4,23.1-3.7s3.8-10.9,5.1-15.4-.5-3.2,2.1-5.9c5-5.1,7.7-3.9,10.3-12.6s.5-4.8,1.3-6.2c1.2-2.1,6.4-5.2,8.4-7.7,4-5.1,6.1-11.3,5.5-17.9s-1.2-3-1-4.9,1.8-5,2.3-7.2c2.1-8.8,2.6-13.9,6.4-22.5,5.7-12.9,13.3-25.2,20.7-37.1s1.7-1,1.9-2.7c.7-4.3-1-8.9-5.8-9.2s-3.8,1.1-5.6-.1c-.2-3.3-.9-7-4.3-8.4s-4.7,0-7.3-.2c-3.2-7.1-6-9.2-14-6.8-.7-4,.5-7.8-4.1-9.6s-7,2.1-8.8,1-1.1-4.2-1.8-5.4c-2.5-4.2-7.5-3.2-11.2-1.2s-1.8,2.8-4,2.2c.6-2.8-1.1-3.8-2.2-5.5s-.5-2.3-2.1-3.4c-3.9-2.5-8.8-.3-11.9,2.4-1.2-1-.6-2.5-1.1-3.9s-2.8-4.3-3.6-4.8c-2.7-1.7-3.7-.5-5.7,1ZM152.8,427v12c15.7,2.2,9.5-14.4,10.5-23.2s2.3-6.1,3.3-9.2c4.7-13.8,5.4-34.1-5.4-45.4l-8.5-7.2.2,7c7.7,4.1,13.2,10.6,13.3,19.7s-1,7.6-1.9,9.1-3.2.9-2.5,3.3,2.1,1.4,1.9,2.8c-.1.1-2.7-1.3-3.5.8s3.1,2.5,3.5,3.5c.5,1.3,1.6,3.3.2,4.2-3.6-3.3-6.3-.4-3.7,3.4l2.9-.9c.4.3-3.3,4.6-4.3,3,0-4.7-1.6-8.3-5.7-10.5,1.2-2.4,5.2-1.1,4.5-4.5h-2.5c.8-2.1,3.6-4.5.3-6-.8,1.4-1,1.8-2.7,1.5v12.7c0,.5,3.6,1.1,3,4l-3,.8v6.1c6.6,4.9,10.6,11.8,7,20l-3.8.8c.4-1.8,1.8-2.5,1.1-4.6s-3.8-4-4.4-3.4ZM180.9,495.1c1.7-2,7-5.7,5.6-8.7s-1.8-1.9-2.3-2.2c-2.7-1.8-12.6-5.3-15.6-4.7s-2.5,1.4-3.8,1.7c-4,.7-8.6-5-12-6.8l.5,3.8c2.6,1.5,9.4,8.8,12.2,8.1s2.4-4.1,4.3-3.9l1.3,2.4,3.6-.9c.2,1.3-4.6,3.5-1.7,4.4s12.3-3.8,9.2,1.3-4.7,3.7-6.4,5.4c-4.2,4.1-2.5,7.1-1.6,12.3-1.4,1.3-18.7-3.3-21.2-5l-.2,3.4c7.2,1.6,14.6,5.6,21.9,5.3,6.5-3.1,1.4-6.3,2.1-9.9s2.8-4.7,4.1-6.2Z"/>
      <path d="M152.8,427c.6-.6,4.1,2.5,4.4,3.4.7,2.1-.8,2.9-1.1,4.6l3.8-.8c3.6-8.2-.4-15.1-6.9-20v-6.1c0,0,2.9-.8,2.9-.8.6-2.9-2.9-3.6-3.1-4v-12.7c1.8.3,2-.1,2.8-1.5,3.4,1.5.6,3.9-.3,6h2.5c.7,3.4-3.3,2.1-4.5,4.5,4.1,2.3,5.8,5.8,5.7,10.5,1,1.6,4.7-2.7,4.3-3l-2.9.9c-2.6-3.8,0-6.7,3.7-3.4,1.4-1,.3-3-.2-4.2-.4-1-3.8-2.8-3.5-3.5.8-2.1,3.3-.6,3.5-.8.2-1.4-1.6-1.8-1.9-2.8-.7-2.4,1.6-1.6,2.5-3.3s1.9-7.2,1.9-9.1c0-9.1-5.6-15.6-13.3-19.7l-.2-7,8.5,7.2c10.8,11.2,10.1,31.5,5.4,45.4s-2.9,5.5-3.3,9.2c-1,8.8,5.1,25.4-10.5,23.2v-12Z"/>
      <path d="M180.9,495.1c-1.3,1.5-3.7,4.3-4.1,6.2-.7,3.6,4.4,6.8-2.1,9.9-7.4.3-14.8-3.7-21.9-5.3l.2-3.4c2.5,1.6,19.8,6.3,21.2,5-.9-5.2-2.5-8.2,1.6-12.3s4.9-3,6.4-5.4c3.1-5.1-7.4-.8-9.2-1.3-3-.9,1.8-3.2,1.7-4.4l-3.6.9-1.3-2.4c-1.9-.2-3.1,3.6-4.3,3.9-2.7.7-9.6-6.6-12.2-8.1l-.5-3.8c3.4,1.8,8,7.5,12,6.8s2.7-1.4,3.8-1.7c3-.6,12.9,2.9,15.6,4.7s2.1,1.8,2.3,2.2c1.4,3-3.9,6.7-5.6,8.7Z"/>
      <g>
        <g>
          <path class="st0" d="M512.3,297.8c0,.1,1.3,1.4,1.5,1.5,2.6,1.2,5.5-2.4,8-3s.2,3.2-.6,4.4c-7,11.8-13.7,21.5-19.1,34.4-1.6,3.8-5.1,13-5.8,16.7s1.5,9-.5,10-4.1-3.6-5-4.5c-6.8-6.9-14.9-9.1-24.4-6.8-1.2-2.3-2.5-4.6-4.1-6.7-9.5-12.4-28.5-16-41.6-6.7s-4.4,5.3-6.5,8.8-1.1.5-1.3.9c-7.9,13.7,1.2,30,14,36.4s13.9,3.5,21.3,1.9,1.6-.9,2.4-1.1c3.7-.7,6,2.2,8.9,3.6s18.9,8.5,20.1,10.9c2,4.1-2.1,10.1-6.1,11.4l-10.6-3.7c-2.4-1.5-4.5-3.2-7.4-1.7v1.9c2.5,1,4.6,2.7,7,3.8s5.5.9,6.9,3.6c.1.6-1.2,4.8-1.6,5.7-.8,2.1-2.5,5-3.2,7.3s-1.5,9.4-3.6,10.4-7.4-.6-9.1-.9c-13.2-2.2-29-8.2-40-15.9s-12.5-9.1-17.8-14.1-10.6-12.6-17.4-14-8.7,3.4-9.4,7.6c-1.3,7.6,5.5,15.6,10.8,20.4s8.2,6,11.4,7.6,8,1.6,8.1,3.4c.3,3.7-4.4,4.1-7.1,3.6s-3.3-1.9-4.6-1.9-3.7,2.3-5.3,1.3c-1.2-1.9-2.5-4.3-4-6-5.6-6.7-14.6-13.7-22.1-18.4s-7.9-3.9-8.4-4.6-.7-1.5-.2-2.3l9.3-8.7c2.8-3,1.9-4.9,7.4-2.2,1.1,1.8-3.3,6.7.8,7.9,2.3,0,2.6-7.3,5.8-9.2s5.5-2.2,5.8-2.2c.7,0,4.9,2.3,5.6,0,1.1-3.4-6.7-4-9-3.5s-5.4,3-6.8,3.2-6.6-2.3-7.3-2.9c-1-.9-2.6-5.4-2.4-6.7s2.1-5.3,2.8-6.3c2.1-3,5.6-4.4,9.2-3.3s4,5.7,7.5,4.8c1-2.8-2-4.4-2.4-6.4-.7-3.2,2-6.5,3.1-9.2,12.8-30.7,24.4-59.2,33.4-91.5.6-2.2,2.5-5.6,2.8-7.7s-1.3-7,1-7.2c1.4,2.4,2.8,7.3,6.2,7s4-5.3,5.6-7.4,0-.9,1.1-.6c.3,3.2.9,11.8,5.2,11.8s6.6-7.8,7.8-10.2h1.9c-.5,2.6.4,4.5.9,6.8s.2,5.1,2.9,5.6,8.1-5.7,10.8-7.8c3.5-1.6,2.1,5.9,2.4,8.1.9,7.4,5.4,9.1,10.5,3.5s2.8-5.9,5.7-5.2.6.9.6,1.5c-.1,3.2-2.1,9.6-.3,11.8,4.2,5.1,9.4-6.8,14-5.8v11.7c0,.3,1.9,1.8,2.5,2,3.3,1.1,5.5-2.3,7.8-4.3s.5-2,2.7-1.5c.3,2.9-2.3,12.4,1.8,13s6.3-5,9.7-5c.5,2.9-.7,8.3,0,10.7ZM369.2,375.8c-1-2.3-1.5-3.7-4.6-4.2-4.6-.7-7.5,12.9-2.1,9.7s.8-4.1,2.3-4.7,1.8,3.7,4.7,2.7c.6-.4.6-1.8.5-2.6s-.8-.7-.9-.9Z"/>
          <path class="st0" d="M456.2,342.2c1.1.8,6.4,8.3,7,9.7s.9,5.7,1,7.5c.4,17.1-15.7,23.4-30.6,22.1s-11.2-5.5-13.4-8.1c-4.1-4.7-7.1-12.5-6.3-18.7,1.8-14.9,19.4-21.8,32.8-17.8s8.3,4.2,9.6,5.2ZM430.8,351.6c-2.5.8-3.3,6.1-1.3,7.6s6.5,1.1,7.3-2.1-2.8-6.5-6-5.5Z"/>
          <path class="st0" d="M486.7,358.2c1.5,1.3,5.7,7.4,6.4,9.4s1.8,6.8,1.8,7.2c-.1,1.7-3,8.8-4,10.6-1.7,3.1-7.9,8.5-11.6,7.6s-1.8-1.3-2.9-1.7c-5-2-13-5.6-17.4-8.5s-1-2.8.7-4.2c3.3-2.8,8.3-11.1,8.7-15.2s-.7-8.5,1-9.5c4.4-.9,9,.2,13,2s3.9,2.1,4.3,2.4ZM481.2,371.6c-4.4.9-3.5,7,.8,6.8s3.7-7.7-.8-6.8Z"/>
          <path class="st0" d="M378.4,397.6c.9,1.7-1.4,1.8-2.2,2.4s-3.8,4.8-5,3l.4-5.4c1.7-.4,5.7-2,6.8,0Z"/>
          <g>
            <path d="M437.7,245.9c2-1.5,2.9-2.7,5.7-1s3.3,4,3.6,4.8c.6,1.4,0,2.9,1.1,3.9,3.1-2.7,8-4.9,11.9-2.4s1.3,2.1,2.1,3.4,2.8,2.7,2.2,5.5c2.2.6,2.7-1.5,4-2.2,3.6-1.9,8.7-3,11.2,1.2s1.2,5,1.8,5.4c1.7,1.1,5.3-2.4,8.8-1s3.4,5.6,4.1,9.6c8-2.4,10.8-.3,14,6.8,2.5,0,4.7-.9,7.3.2s4.1,5.1,4.3,8.4c1.8,1.2,3.7,0,5.6.1,4.8.3,6.5,4.9,5.8,9.2s-1.4,1.8-1.9,2.7c-7.4,12-15,24.2-20.7,37.1s-4.3,13.8-6.4,22.5-2.1,5-2.3,7.2.8,3.2,1,4.9c.6,6.5-1.5,12.7-5.5,17.9s-7.2,5.6-8.4,7.7-.7,4.4-1.3,6.2c-2.6,8.8-5.4,7.5-10.3,12.6s-1.3,3.3-2.1,5.9c-1.3,4.5-3.5,11.1-5.1,15.4-3.4,9-16,5.4-23.1,3.7-8.7-2.1-17.5-5.5-25.5-9.5s-6.5-5.5-12.2-4.1-3.1,4.4-4.5,6.9c-2.6,4.6-7.2,5.5-12,5.4s-3.1-1.3-4,.5,2.2,7,2.6,8.9c2.9,12.2-.3,30.6-12.2,37s-4.8,1.5-6.2,3c-2.3,2.4-3.1,7.9-4.8,11.1-1.4,2.5-4.7,4.2-4.1,7.2s2.2,5.9,2.7,6.8c1.9,4,7.3,7.7,9.9,11.6s3.6,7.6,2.2,13.7-4.4,11.6-9.5,15c-3.9,2.6-7.8,1.9-5.5,8.5s4.4,5.4,5.2,8.3.1,2.5.4,3.6c.7,3.1,7.5,6.7,10.1,9.3,4.5,4.3,12.2,14.6,8.8,20.9s-14.3,9.8-18.9,11.5c-17.5,6.5-46.5,6.5-63.7-1.5-3.3-1.5-4.8-3.9-6.7-6.8-6.2-.5-12.3,1.2-18.4,1.4s-21.3-.5-29.4-2.7-10.2-3.2-11.9-4.4-1.7-9.8-1.4-12.2c.6-5,5.5-10,5-14.9s-1.8-3.7-1.4-6c.9-4.6,2.5-8.2,4.5-12.4,1.4-2.8.8-4.5,1.6-7.5s1.6-3.2,1.7-3.6c0-1-1.9-3.6-2.2-5.1-.8-4.4-.5-7.9,3.1-10.6s4.7-2.1,6.2-3.7,3.4-6.5,3.4-7.5c-1.3-3.4-2.2-7.8-4-11s-4.3-2.6-6.3-4.4-7.6-10.2-8.6-12.1c-5-10.4-3.9-23.1.4-33.4.8-2,4.7-8.6,4.5-9.9s-1-1.6-.9-2.9c.1-2.7,3.4-9.1,5.4-11.2,7.3-7.6,23.6-16.4,33.9-19.1s10.1-1.4,14.5-2.5,7.9-5.2,12.5-6.5,8,.3,10.7-.2,7.8-5.7,11.3-6.7,5.9.2,8.6-.3,10.3-8.4,10.8-10.7c-1.2-4.7-1.8-8.9-.8-13.7s4.2-8.5,6.9-10.1,8-1.5,9.2-2.8c7.7-14.7,13.7-30,19.4-45.6,4-11.2,7.3-21.9,10.7-33.2s6.4-17.5,8-26.4.4-9.5,1.4-11.6,2.7-2.6,2.9-2.7c5.1-2,6.6,1.3,9.2,4.6,3.6-2.9,5.1-6.1,10.7-4.2s2.9,5,5.8,6.1c1.2-1.1,2.3-2.1,3.5-3.1ZM512.3,297.8c-.7-2.5.5-7.9,0-10.7-3.4,0-6.5,5.5-9.7,5s-1.5-10.2-1.8-13c-2.2-.5-1.8.7-2.7,1.5-2.3,2-4.5,5.4-7.8,4.3s-2.5-1.7-2.5-2v-11.7c-4.6-1-9.8,10.9-14,5.8s.2-8.5.3-11.8.3-1.2-.6-1.5c-2.9-.7-4.3,3.7-5.7,5.2-5.1,5.5-9.6,3.8-10.5-3.5s1.1-9.7-2.4-8.1c-2.8,2.1-7.2,8.6-10.8,7.8s-2.5-3.8-2.9-5.6-1.4-4.2-.9-6.9h-1.9c-1.3,2.5-5,10.3-7.8,10.3-4.3,0-5-8.6-5.2-11.8-1.2-.3-.8.2-1.1.6-1.7,2.1-2.8,7.1-5.6,7.4s-4.8-4.6-6.2-7c-2.3.2-.6,4.8-1,7.2s-2.2,5.5-2.8,7.7c-9,32.3-20.6,60.8-33.4,91.5s-3.8,6-3.1,9.2,3.4,3.6,2.4,6.4c-3.4.9-4.9-4-7.5-4.8-3.7-1.1-7.1.3-9.2,3.3s-2.6,5.2-2.8,6.3,1.4,5.8,2.4,6.7,6.7,2.9,7.3,2.9c1.4-.1,4.7-2.7,6.8-3.2s10.1,0,9,3.5-4.9,0-5.6,0-5.4,1.9-5.8,2.2c-3.1,1.9-3.5,9.2-5.8,9.2-4.2-1.2.3-6.1-.8-7.9-5.5-2.7-4.6-.8-7.4,2.2l-9.3,8.7c-.5.8-.3,1.6.2,2.3s6.9,3.6,8.4,4.6c7.5,4.7,16.4,11.7,22.1,18.4s2.8,4.1,4,6c1.6,1,3.5-1.3,5.3-1.3s2.9,1.6,4.6,1.9c2.7.5,7.5,0,7.1-3.6s-6.1-2.3-8.1-3.4c-3.2-1.6-8.8-5.3-11.4-7.6-5.4-4.8-12.2-12.8-10.8-20.4.7-4.2,4.9-8.6,9.4-7.6,6.8,1.4,12.5,9.4,17.4,14s11.6,9.8,17.8,14.1c11,7.8,26.8,13.7,40,15.9s8,1.4,9.1.9c2.1-1,2.9-8,3.6-10.4s2.5-5.2,3.2-7.3,1.7-5.2,1.6-5.7c-1.3-2.7-4.8-2.7-6.9-3.6s-4.5-2.8-6.9-3.8v-1.9c2.9-1.5,5,.2,7.4,1.7l10.6,3.7c4-1.4,8.1-7.3,6.1-11.4s-16.8-9.4-20.1-10.9-5.2-4.2-8.9-3.6-1.5.9-2.4,1.1c-7.3,1.6-14.5,1.5-21.3-1.9-12.8-6.4-22-22.8-14-36.4s1.2-.6,1.3-.9c2.1-3.5,2.6-6,6.5-8.8,13.1-9.3,32.1-5.7,41.6,6.7,1.6,2.1,2.9,4.4,4.1,6.7,9.5-2.2,17.6,0,24.4,6.8.9.9,3.3,5.4,5,4.5s0-7.5.5-10c.7-3.7,4.2-12.9,5.8-16.7,5.4-12.9,12.1-22.6,19.1-34.4s3.2-5.1.6-4.4-5.4,4.2-8,3-1.5-1.4-1.5-1.5ZM456.2,342.2c-1.3-1-8-4.7-9.6-5.2-13.4-4.1-30.9,2.9-32.8,17.8s2.2,14,6.3,18.7,10.2,7.8,13.4,8.1c14.8,1.3,31-5,30.6-22.1s-.3-6-1-7.5-6-8.9-7-9.7ZM486.7,358.2c-.4-.3-3.7-2.1-4.3-2.4-4-1.8-8.6-2.9-13-2-1.7,1-.8,7.4-1,9.5-.4,4.1-5.4,12.5-8.7,15.2s-4.8,1.4-.7,4.2,12.5,6.6,17.4,8.5,1.8,1.4,2.9,1.7c3.7.8,9.9-4.5,11.6-7.6s3.9-8.9,4-10.6-1.5-6.4-1.8-7.2c-.7-1.9-4.8-8.1-6.4-9.4ZM378.4,397.6c-1.1-2-5.2-.3-6.8,0l-.4,5.4c1.2,1.8,4-2.2,5-3s3.1-.8,2.2-2.4ZM385.3,402.7c-.8-.7-3.8-3.2-4.7-2.7-.4,3.6-8.1,6.9-7,10.1s1.1.7,1.4,1.2.9,1.9,1.1,2c1.4.9,5.3-2.2,6.4-3.1s4.1-4,4.2-4.3c.8-1.3-.6-2.5-1.5-3.3ZM392.1,410.3c-.9-.6-.8-2.2-3.2-1.1s-5.2,4.3-5.8,4.9-1.1,2.1-2.6,2.4v1.3c2.2,1.7,5.5,3.8,8.4,2.3s.4-1,.9-1.2c.8-.5,1.8-.7,2.6-1.3s3.8-2.9,3.8-3.2c.4-1.8-2.9-3.3-4.1-4.2ZM405.4,420.1c-.1-.2-3.5-2.5-4-2.7-3.8-1.3-5,1.9-7.5,3.8s-3.3.8-2.8,2.5,7,2.1,8.6,1.7,5.1-2.9,5.4-3.1c.5-.6.8-1.5.4-2.2ZM252,441.5c-2.1.3-4.8,4.4-2.6,4.9s3.7-3.3,4.2-4.2c-.5-.7-.7-.8-1.6-.7ZM314.9,460.6c-11.1-8-34-16.2-47.5-17.7-2.8-.3-5.9,0-8.7-.3-8,9-15.1,17.9-16,30.5s5.5,27.6,17.3,30.6,5-.6,6.6,2.4c.8,2.5-5.8,1.5-5.4,3.4s1.8,2.7,2.4,4.1c1.3,3.2,4.2,12.6,4.5,15.9s-.5,9.1.5,9.9c7.2,2.5,16,5.2,23.7,4.2s3.2-5.4,3.3-7.7c.3-7.6-3.1-14.3-6.9-20.6s-8.6-6.5-11.6-9.4c-9.6-9.1-14.1-27.6-8.2-39.7s4.8-5.8,4.2-8.2-3.1-1.5-.8-3.4,3.7,1.3,5.1,1.4,1.8-1.1,2.8-.8l1.3,1.3c.1.7-1,2.3-1.4,2.9-1.6,2.2-4.5,3.3-6.2,5.8-4.3,6.3-4.1,16.4-2.3,23.6s13.8,21.8,24.2,23.2,11.1-.6,13.9,1.1.3,3.5,1.3,5.1,2.5,1.6,3.3,2.4c3.1,3.2,10.1,13.3,9.2,17.7s-1,1.3-1,2.3c3.5,1.4,6.8-.7,9.9-2.1.7-1.4-.8-2.3-1.2-3.4-5.8-17.5-12.6-36.2-6.9-54.9.9-2.9,2.9-4.8,2.1-8.2s-5.4-6.1-6.2-6.9c-1.3-1.2-4.1-3.8-5.5-4.8ZM356.3,460.6c-.9-.6-7.9-4.3-8.7-4.5s-2.1-.4-3,0c-5.9,6.4-11.4,12.7-14.8,20.9s-3.5,12.7-3.8,19.1c-.6,10.3,6.1,33.1,12,41,3.8,5,8.3,8,1,13,1,1,4.9.7,5.9.1s.4-.9.9-1.3,1.4-.6,2.2-1.3,3.8-7.6,5.9-4.4-3.1,4.5-2.5,7.2c1.3,0,2.8.3,4-.3s3.9-2.8,4-3c1.6-1.8.9-5.6,5-4.8,1.1,1.6-1.6,5.9-1.5,6.2.2,1.1,2,.5,2.6.1,2.3-1.3,5.7-10.6,5.8-13.2s-.6-3.5-1.2-4.6c-1.5-2.7-6.2-6.5-8.2-9.3-3.3-4.5-6.9-13.1-7.5-18.5-.5-4.6,1.1-9.9,2.1-14.4s6.2-10.2,7.4-12.1,2.1-1.1,2.1-3.5-1.2-2.1-2.1-3.5c-1.6-2.6-5.2-7.3-7.7-9.1ZM370.5,482.9l-2.3-4.4c-1.9,0-1.5,1.4-2.2,2.2s-1.7.8-2,2c2.4,2.2,4.1,2.2,6.4.2ZM363.5,488.4l-2,.2c-.7,1.5-4,10.3-3,11.2.7,0,1,.2,1.5-.3,1.3-1.2,4.1-10.6,3.5-11.2ZM308.9,521.1c-.8-.7-4.2-4-4.6-4.1-1.7-.5-6.6-1-8.7-1.3s-1.2-.5-1.4.4,3.3,7.8,3.9,9.6.6,4.8,1.2,6.8,3.6,1.8,5.1,1.9c4.4.3,8.8-.5,13.2-.6.1-.5.4-.9.3-1.5-.7-2.7-6.7-9.2-8.9-11.3ZM263.6,533.5c-1.4-.9-10.8,1.3-11.7,2.9s1.9,7.2,3.4,8.8,6.4,3.9,8.4,4.9,4.3.7,3.7,2.8c-1.5,5.2-10.6-2.3-13.5-3-6.6,4.3,1,9,5,11.5s7.7,3.1,7.2,5.1-1.6,2-2.6,1.8-5.4-2.5-6.1-2.9c-2.3-1.3-4.9-4.6-7.7-3.7s-2.1,2-1.9,3.4,6.3,5.4,8,5.9,4.3-.1,5.4,1.6-.7,3.4-2.7,3.8c-2.4-1.3-5.3-1.5-7.7-2.9s-1.3-2.5-4.6-1.6c-.9.9,2.6,3.5,3.4,3.9,5.7,3.1,19.9,6.4,26.4,7.1s2.7-.8,4.4-1c5.1-.6,12.1,0,17.3-1.7s1.9-1.9,3.4-1.8c.7-1.6-.7-2.7-2.2-2.9-4-.6-8.9-.6-12.9-1.1s-9.6-1.4-13.4-2.5-2.3-4.1.6-4.7,4.1,1.3,6.3,1.7c7,1.5,18.8,2.5,25.9,2s11.5-2.8,16-2,.9.3,1.3.8c-2.8,6.9-11.5,3-16.5,6,5.1,5.1,13.8,1.3,19.1,2.9s1.4,1.1,1.8,1.7c-.3,1.4-1.4,2-2.7,2.2-2.8.4-11.2.3-14,0s-5.9-2.4-6.7-.2-.2,5,.8,5.2c6.6-.4,13.9.5,20.4,0,7.8-.6,27.5-5.9,33.9-10.1s3.3-3.6,2.2-5.3-1-.5-1.4-.8c-.9-.8,0-1.7-2.7-1.2s-10.1,6.2-14.3,7.7-5.4,2.3-6.9.5c-1.1-3.3,7.7-5,10.1-6.2s12-7.5,9.8-9.9c-1.3,0-2.7.4-3.9.9-4.9,1.6-12,5.8-16.9,6.6s-7.5.1-5.3-2.7,8.4-2.6,11-3.5,8.3-3.3,11.4-5.1,4.6-2.9,4.8-3.2c.5-.8,0-1-.5-1.5-1.6.4-2.2,1-4,1s-2.9-1.2-4.5-1.1-3.8,1.5-6,1.5-4-1.9-5.7-2.3c-3.2-.9-13.9,4.3-17.9,5.3-6.4,1.6-17.4,3.2-23.9,3s-5.9-.6-6.2-2.3c2.3-3.4,7.3-1.9,10.7-2.2,10.4-1,20.4-2.8,30.2-6.3s9.6-3.1,9.5-5.9c-.3-4.9-6-1-7.9-.5-19.6,6.1-45.2,7.2-64.5-.1-1.9-.7-4.1-2.1-6-3s-3,0-3.8-2.3c-1.5-4.4,11,1.5,7.2-4.9ZM319.5,538.4c-.6-.9-3.2,0-4.2,0-3.1,0-14.5-.9-16,1.5s-.4,2.3-.7,3.2c.3.8,1,.7,1.7.8,3.6.4,12.4.1,16-.5s4-3.8,3.2-4.9ZM293.1,585.8h-9.2c-.1,0-1.4,1.1-1.8,1.3,1.8,6.2,9.4,4.4,11-1.3ZM301.5,597.4c-1.4-.8-5.4,1.1-7.2,1.4-11.7,1.8-27.6,1.6-39.3-.6s-8-2.8-10.2-2.9-2,.6-2.2,1.8c0,.4,1.3,1.7,1.7,1.9,13.2,6,31.1,4.3,45.1,2.9s10.3.2,12.3-2.7.2-1.5-.1-1.7ZM380,599.8c-.5-.5-5.2,2-6.1,2.5-17.9,9.1-32.9,9.4-53,6.4-4-.6-10.1-3.3-13.6-3.4s-1.5.3-2.1.5v1.2c.4,2.2,3.6,3,5.4,3.5,15.7,4.8,39.7,5.9,55,.1s12.8-6,13.9-7.6.5-2.2.5-3.3Z"/>
            <path class="st0" d="M314.9,460.6c1.4,1,4.2,3.5,5.5,4.8s6.1,6.4,6.2,6.9c.7,3.4-1.2,5.3-2.1,8.2-5.7,18.7,1.1,37.4,6.9,54.9.4,1.1,1.8,2,1.2,3.4-3.1,1.3-6.4,3.5-9.9,2.1,0-.9.8-1.4,1-2.3.9-4.5-6.1-14.5-9.2-17.7s-2.9-1.7-3.3-2.4c-1-1.6,1-3.7-1.3-5.1s-10.5-.6-13.9-1.1c-10.4-1.5-21.6-13.3-24.2-23.2s-2.1-17.3,2.3-23.6,4.5-3.6,6.2-5.8,1.5-2.3,1.4-2.9l-1.3-1.3c-1.1-.3-1.9.9-2.8.8-1.4-.1-3.1-3.1-5.1-1.4s.7,3.1.8,3.4c.6,2.4-3,5.8-4.2,8.2-6,12.1-1.4,30.6,8.2,39.7s9.8,6.3,11.6,9.4c3.8,6.3,7.2,13,6.9,20.6s-.6,7.3-3.3,7.7c-7.7,1-16.5-1.7-23.7-4.2-1-.8-.3-7.9-.5-9.9-.4-3.3-3.2-12.7-4.5-15.9s-2.2-3-2.4-4.1c-.3-1.9,6.3-.9,5.4-3.4-1.6-3-4.2-1.9-6.6-2.4-11.8-3-18.1-19.6-17.3-30.6s7.9-21.5,16-30.5c2.8.3,5.9,0,8.7.3,13.5,1.4,36.4,9.7,47.5,17.7Z"/>
            <path class="st0" d="M263.6,533.5c3.8,6.4-8.7.5-7.2,4.9s2.3,1.6,3.8,2.3,4.1,2.2,6,3c19.3,7.3,44.8,6.3,64.5.1s7.7-4.4,7.9.5-7.2,5.1-9.5,5.9c-9.8,3.4-19.9,5.3-30.2,6.3-3.5.3-8.5-1.1-10.7,2.2.4,1.6,4.7,2.2,6.2,2.3,6.6.2,17.5-1.4,23.9-3s14.7-6.2,17.9-5.3,2.7,2.3,5.7,2.3,4.3-1.4,6-1.5,2.5,1.1,4.5,1.1,2.4-.7,4-1c.5.5,1.1.7.5,1.5s-4.1,2.8-4.8,3.2c-3.1,1.8-8.1,4-11.4,5.1s-9.6,1.7-11,3.5c-2.2,2.9,3.3,3.1,5.3,2.7,4.8-.8,12-5,16.9-6.6s2.6-.8,3.9-.9c2.3,2.4-8,9-9.8,9.9s-11.2,3-10.1,6.2c1.6,1.9,4.9.2,6.9-.5,4.3-1.5,11.4-7.2,14.3-7.7s1.8.4,2.7,1.2,1.3.7,1.4.8c1,1.7-.7,4.3-2.2,5.3-6.3,4.2-26.1,9.5-33.9,10.1-6.6.5-13.8-.4-20.4,0-.9-.2-1-4.3-.8-5.2.7-2.2,5.2,0,6.7.2,2.8.3,11.3.4,14,0s2.4-.9,2.7-2.2c-.4-.6-1.1-1.5-1.8-1.7-5.4-1.6-14.1,2.3-19.1-2.9,5-3,13.7.9,16.5-6-.3-.5-.7-.7-1.3-.8-4.4-.8-11.1,1.7-16,2-7.2.5-18.9-.5-25.9-2s-3.8-2.3-6.3-1.7-3.3,3.9-.6,4.7c3.8,1.1,9.4,2,13.4,2.5s8.9.4,12.9,1.1,2.9,1.3,2.2,2.9c-1.5,0-2.3,1.5-3.4,1.8-5.2,1.6-12.1,1.1-17.3,1.7s-2.4,1.2-4.4,1c-6.5-.7-20.7-4-26.4-7.1s-4.3-3-3.4-3.9c3.3-.8,3.1.7,4.6,1.6,2.4,1.4,5.2,1.6,7.7,2.9,2-.4,4.2-1.6,2.7-3.8s-3.4-1-5.4-1.6-7.8-4.3-8-5.9.5-2.9,1.9-3.4c2.8-.8,5.4,2.5,7.7,3.7s5.8,2.8,6.1,2.9c.9.2,2.4-1,2.6-1.8.5-2-5.8-4.2-7.2-5.1-4-2.5-11.6-7.2-5-11.5,2.9.7,12,8.2,13.5,3s-2.6-2.2-3.7-2.8c-1.9-1-7.1-3.6-8.4-4.9s-4.6-6.7-3.4-8.8,10.2-3.8,11.7-2.9Z"/>
            <path class="st0" d="M356.3,460.6c2.5,1.8,6.1,6.5,7.7,9.1s2.1,1.1,2.1,3.5-1.2,2.1-2.1,3.5-7.1,11-7.4,12.1c-1,4.5-2.6,9.8-2.1,14.4.6,5.4,4.1,14,7.5,18.5s6.7,6.6,8.2,9.3,1.3,3.4,1.2,4.6c0,2.6-3.5,11.9-5.8,13.2s-2.4,1-2.6-.1,2.6-4.6,1.5-6.2c-4.1-.8-3.3,2.9-5,4.8s-3.8,2.9-4,3c-1.2.6-2.7.2-4,.3-.6-2.7,4.5-4.2,2.5-7.2s-4.9,3.4-5.9,4.4-1.5.8-2.2,1.3-.7,1.2-.9,1.3c-1,.6-4.9.9-5.9-.1,7.3-5,2.8-8-1-13-5.9-7.9-12.6-30.7-12-41,.4-6.4,1.4-13.2,3.8-19.1s8.9-14.5,14.8-20.9c.9-.4,2.1-.2,3,0s7.8,3.9,8.7,4.5Z"/>
            <path class="st0" d="M380,599.8c0,1.1.3,2.3-.5,3.3-1.1,1.6-11.6,6.7-13.9,7.6-15.3,5.8-39.4,4.7-55-.1s-5.1-1.4-5.5-3.5v-1.2c.7-.2,1.4-.5,2.2-.5,3.5.2,9.6,2.8,13.6,3.4,20.1,3,35.1,2.7,53-6.4,1-.5,5.6-3,6.1-2.5Z"/>
            <path class="st0" d="M308.9,521.1c2.2,2,8.2,8.6,8.9,11.3s-.1,1-.3,1.5c-4.4,0-8.8.9-13.2.6s-4.6-.2-5.1-1.9-.7-5.1-1.2-6.8-4-8.5-3.9-9.6,1-.5,1.4-.4c2.2.3,7,.7,8.7,1.3s3.9,3.4,4.6,4.1Z"/>
            <path class="st0" d="M301.5,597.4c.3.2.4,1.2.1,1.7-2,2.9-9.1,2.4-12.3,2.7-14,1.5-31.9,3.1-45.1-2.9-.3-.1-1.7-1.5-1.7-1.9.2-1.2,1-1.8,2.2-1.8,2.2.1,7.4,2.4,10.2,2.9,11.6,2.2,27.6,2.3,39.3.6s5.9-2.2,7.2-1.4Z"/>
            <path class="st0" d="M392.1,410.3c1.2.9,4.5,2.4,4.1,4.2s-3.3,2.8-3.8,3.2c-.8.6-1.8.8-2.6,1.3s-.5,1.1-.9,1.2c-2.9,1.5-6.2-.6-8.4-2.3v-1.3c1.5-.3,1.8-1.6,2.6-2.4s5.5-4.7,5.8-4.9c2.4-1.1,2.3.4,3.2,1.1Z"/>
            <path class="st0" d="M319.5,538.4c.8,1.1-1.8,4.7-3.2,4.9-3.6.7-12.4.9-16,.5s-1.4,0-1.7-.8c.3-.9.2-2.5.7-3.2,1.4-2.4,12.9-1.4,16-1.5s3.6-.9,4.2,0Z"/>
            <path class="st0" d="M385.3,402.7c.8.8,2.3,1.9,1.5,3.3s-3.9,4-4.2,4.3c-1.2,1-5,4-6.4,3.1s-.7-1.6-1.1-2-1.2-.6-1.4-1.2c-1.1-3.2,6.6-6.6,7-10.1.9-.5,4,1.9,4.7,2.7Z"/>
            <path class="st0" d="M405.4,420.1c.4.7.1,1.6-.4,2.2s-5,3.1-5.4,3.1c-1.6.4-8.1.2-8.6-1.7s1.8-1.7,2.8-2.5c2.5-1.9,3.7-5.1,7.5-3.8s3.9,2.5,4,2.7Z"/>
            <path class="st0" d="M293.1,585.8c-1.6,5.7-9.2,7.5-11,1.3.4-.2,1.7-1.3,1.8-1.3h9.2Z"/>
            <path class="st0" d="M363.5,488.4c.6.6-2.1,10-3.5,11.2s-.8.4-1.5.3c-1-1,2.3-9.7,3-11.2l2-.2Z"/>
            <path class="st0" d="M370.5,482.9c-2.4,2-4,2-6.4-.2.3-1.2,1.4-1.3,2-2s.2-2.3,2.2-2.2l2.3,4.4Z"/>
            <path class="st0" d="M252,441.5c.9-.1,1.1,0,1.6.7-.5.9-3.3,4.4-4.2,4.2-2.3-.5.5-4.6,2.6-4.9Z"/>
          </g>
          <path d="M369.2,375.8c0,.2.8,0,.9.9s0,2.1-.5,2.6c-2.9,1-3-3.4-4.7-2.7s-1.1,4-2.3,4.7c-5.4,3.3-2.5-10.4,2.1-9.7s3.6,1.9,4.6,4.2Z"/>
          <path d="M430.8,351.6c3.2-1,6.9,2,6,5.5s-5,3.8-7.3,2.1-1.2-6.9,1.3-7.6Z"/>
          <path d="M481.2,371.6c4.5-1,5.3,6.5.8,6.8s-5.2-5.8-.8-6.8Z"/>
        </g>
        <g>
          <path d="M280.4,71c23.4,15.1,38.2,42.4,43.9,69.3,3.7,4.3,8.4,7.7,11.4,12.6,5.9,9.8,5.3,19.9-.6,29.6l.2.7c7.8,5.1,9.9,14.1,7.4,22.9s-3,5-1.5,7.4.9.5,1.2,1c3.3,4.9,14.6,20.3,15.1,24.9s.7,11.6-3.5,16c-8.3,8.8-22.6,8.5-33.9,9.8-2,3.4-2,7.4-2.7,11s-3,7.3-1.6,10.4,1.5,1.2,1.9,2.1c2.3,3.9.8,8.3,1.5,12.5,4.4,3.2,9.4,5.5,13.9,8.6s2.3,1.3,3.1,1.9c4.4,3.1,4.2,9.8-1.1,10s-17.4-10.9-21.9-12.4c-1.7.4-2.9,1.8-4.5,2.5s-9.8,2.4-10.5,4-.6,4.7-4,5c-5.6.4-4.7-3.8-6.6-4.4l-18.4-.6c-30.7-6.3-62.3-30.9-44.4-65.4,8.2-15.8,22.5-22.5,38.3-29.1s7.4-3.1,11.3-3.9c0-.9.3-1.1-.6-.9-13.5,2.5-26.3-.2-36.6-9.6s-16.3-33.5-4.7-48.1c10.9-13.8,28.1-18.6,45.1-14,3.5-1.9,6.2-5.2,10-7,8-3.7,16.9-3.5,25.3-1.9-2.5-10-6.7-20.3-12.1-29.1-21.1-34.7-62.4-50.6-99.9-30.7-28.2,15-37.2,40.9-31.7,72.4,2.1,12,7,24.2,12.9,34.9,1.3.1.8,0,1-.7.8-3.5-.1-10.5,4.9-11.2s3.2.8,4.6,2.1c3.1,2.8,8.8,9.3,11.5,12.6s4.8,6,5.7,7.7c2.3,4.3-1.3,7.5-5.8,6.3s-8.1-8.7-10.4-11.1-.6-1-1.5-.8c.3,3.3-.9,6.3-.4,9.6s3.2,5.7,4,8.8c4.5,0,16.7,1,15.4,7.8s-2.9,3.5-3.8,3.7c-2.6.4-4.9-1.5-7.4-1.4s-7.7.9-10,2.5c-13.8,9.7-5.5,30.9,12.4,27.9,3.8-.6,9.4-6.8,12.9-5.1s1.9,2,2,2.1c2.9,5.9-6.6,8.4-7.4,12.5s-.8,9.1-1.2,13.3-1.4,5.9-.9,10,5,7.3,8.2,9.8c6.1,4.8,13,8.7,19.1,13.3s4.2,3.1,4.6,3.9.8,8.9.5,10.5-3.2,3.4-5.2,3.3c-4.5-.3-4.3-5.1-4-8.5l-24.5-17.5c-2.7-2.5-5.5-5.7-9-7-.3,0-2,5.5-2.2,6.3-1.5,5.6-3.4,19.8-6.6,23.9s-8.8.7-8-5,1.5-5.9,2.1-8.4c2.2-9.8,4.7-19.5,7.3-29.1l7.5,1.3,2-19c-3.3-.2-7.9-1-11-2.2-18.7-7.8-19.9-30.8-5.3-43.7s2.3-.6,2.7-1.8c.7-2.4-6.1-7.9-7.7-9.8s-.8-2.2-1.9-2.8c-.7.6-1,1.5-1.1,2.4-.8,4.3-.6,10.3-1.7,14.3s-4,4.5-6.9,3.5c-4.6-1.6-1.9-8.2-1.6-11.5.5-5.1.8-17.6,2.3-21.7s2.2-2.7,2.3-3.8-4.4-9.7-5-11.4c-6.7-18.8-9.2-46.1-1.9-64.8,18.1-46.1,77.4-59,117.5-33.1ZM319.4,149.3c-1.8-1.2-7.5-3.5-9.7-4-7.5-1.6-16.2-1.2-22.1,4.1-.1.6,4.9,4,5.8,4.9,4.2,4.3,8.8,12.3,10,18.2s.6,7.5,1.1,7.9c2.4.7,4.8-.6,7.3-.8s13.4.9,14.6-1.1.1-1.3.4-1.8c6.4-10.6,2.7-19.1-6.5-26s-.5-1.1-.9-1.4ZM279.9,156.4c-17.8-9.6-44.1,1-44.8,22.5s28.3,35.8,47.1,23.2c16.9-11.3,15.7-36-2.3-45.7ZM332.4,193.3c-3.9-4.7-14.8-4.1-20.5-3.7s-8.3.9-9.7,2.7c-2.1,2.7-3.3,6.6-5.5,9.5-5.2,6.8-10.3,9.4-17.9,12.5s-2.3,1.1-2.5,1.7c7.3-1.5,14.7-4.3,22.3-4.9s14,0,20.9-.6,8.8-.4,11.6-3.2,2.5-3.5,2.6-3.7c.6-2.1.4-8.7-1.1-10.5ZM333.4,218.8c-1.5-1.3-8.2,1.6-10.6,1.9-8,.8-17.3-.5-25.4.5-14.4,1.9-42.4,12.5-54,21.1s-17.4,26.7-10.7,39.5c11.4,21.8,46.4,28.4,68.6,22.1,3.6-1,11.8-6.3,7.6-10.4s-16.2.8-20.5,1.4c-7.8,1-20.7.7-27.8-2.5-11.3-5.1-17.2-20.3-9-30.8s22.6-6.8,34.9-6.5c15.1.4,39.3,1.4,53.4-2.5s11.1-5.9,7.5-13.4-5.7-8.4-8.1-11.9-3.7-5.8-5.7-8.5ZM262.6,282.1c1.7-5.7,3.3-11.3,4.6-17.2s.7-1.2-.3-1.3-4.5,1.3-5.5,2c-3.4,2.4-4.6,6-3.6,10.1s3.6,7.3,4.9,6.4ZM272.6,285.6h12l5-20.5c-2.1.1-11.2-1.4-12.2,0-1.7,5.1-2.7,10.4-3.8,15.7s-1.6,2.8-.9,4.8ZM309,265.7c-.6-1-9.3-.2-9.7.4l-4.2,17c3.7.5,6.8-.8,10.4-1.1.4-2.9,1.9-6,2.5-8.7s-.1-1.7,0-2.4c.3-1.2,1.9-3.6.9-5.2Z"/>
          <path class="st0" d="M333.4,218.8c2,2.7,3.8,5.7,5.7,8.5s6.3,8,8.1,11.9c3.6,7.5-.4,11.4-7.5,13.4-14.2,3.9-38.3,2.9-53.4,2.5-12.3-.3-26-5-34.9,6.5s-2.3,25.7,9,30.8,20,3.6,27.8,2.5,17.3-4.5,20.5-1.4-4,9.3-7.6,10.4c-22.2,6.3-57.1-.3-68.6-22.1-6.7-12.8-.5-31.2,10.7-39.5s39.6-19.2,54-21.1c8.2-1.1,17.4.2,25.4-.5s9.1-3.1,10.6-1.9Z"/>
          <path class="st0" d="M279.9,156.4c18,9.7,19.2,34.4,2.3,45.7-18.8,12.6-47.9,1.2-47.1-23.2s27-32.1,44.8-22.5ZM260,175.8c-1.1,0-3.6,1.2-4.6,1.8-6.5,4.5-1.8,14.2,5.7,12.2s6.3-14.4-1.1-14Z"/>
          <path class="st0" d="M319.4,149.3c.3.2.4,1,.9,1.4,9.2,6.9,13,15.4,6.5,26s-.1,1.3-.4,1.8c-1.2,2-11.8.9-14.6,1.1s-4.9,1.5-7.3.8c-.5-.3-.8-6.4-1.1-7.9-1.2-5.9-5.9-13.9-10-18.2s-6-4.3-5.8-4.9c5.9-5.3,14.6-5.7,22.1-4.1s7.9,2.8,9.7,4ZM318.9,161.4c-2.1-1.9-7.1-1.8-9,.5-5.9,7.2,3.1,16.6,9.4,10.4,3.2-3.1,2.8-7.9-.4-10.8Z"/>
          <path class="st0" d="M332.4,193.3c1.5,1.7,1.7,8.4,1.1,10.5s-2.3,3.4-2.6,3.7c-2.7,2.8-7.8,2.8-11.6,3.2-6.9.6-14,0-20.9.6s-15,3.4-22.3,4.9c.3-.6,2-1.5,2.5-1.7,7.6-3.1,12.7-5.7,17.9-12.5s3.4-6.7,5.5-9.5,7.3-2.6,9.7-2.7c5.7-.4,16.6-1,20.5,3.7Z"/>
          <path class="st0" d="M272.6,285.6c-.6-2,.6-3.3.9-4.8,1.1-5.3,2.1-10.6,3.8-15.7,1-1.4,10.1.1,12.2,0l-5,20.5h-12Z"/>
          <path class="st0" d="M309,265.7c1,1.6-.6,4-.9,5.2s.1,1.7,0,2.4c-.6,2.7-2.2,5.8-2.5,8.7-3.6.3-6.7,1.6-10.4,1.1l4.2-17c.4-.6,9.1-1.4,9.7-.4Z"/>
          <path class="st0" d="M262.6,282.1c-1.3,1-4.6-5.4-4.9-6.4-.9-4.1.2-7.7,3.6-10.1s4.4-2.1,5.5-2,.4.9.3,1.3c-1.3,5.9-2.9,11.5-4.6,17.2Z"/>
          <path d="M260,175.8c7.4-.4,10.4,11.4,1.1,14s-12.1-7.7-5.7-12.2,3.5-1.8,4.6-1.8Z"/>
          <path d="M318.9,161.4c3.2,2.9,3.6,7.7.4,10.8-6.3,6.2-15.3-3.2-9.4-10.4,1.9-2.3,6.9-2.4,9-.5Z"/>
        </g>
      </g>
    </g>
  </g>
</svg>