<?xml version="1.0" encoding="UTF-8" standalone="no"?>
<!DOCTYPE svg PUBLIC "-//W3C//DTD SVG 1.1//EN" "http://www.w3.org/Graphics/SVG/1.1/DTD/svg11.dtd">
<svg width="100%" height="100%" viewBox="0 0 6456 771" version="1.1" xmlns="http://www.w3.org/2000/svg" xmlns:xlink="http://www.w3.org/1999/xlink" xml:space="preserve" xmlns:serif="http://www.serif.com/" style="fill-rule:evenodd;clip-rule:evenodd;stroke-linejoin:round;stroke-miterlimit:2;">
    <g transform="matrix(1,0,0,1,-25786.3,-11132.1)">
        <g transform="matrix(1,0,0,1,35720.6,20937.7)">
            <g transform="matrix(1,0,0,1,-27784.5,-4075.57)">
                <g transform="matrix(1,0,0,1,23351.5,-6567.31)">
                    <path d="M-5501.29,1363.93C-5467.24,1309.4 -5402.02,1207.69 -5377.07,1206.78L743.025,1206.78C758.32,1206.48 762.577,1198.39 762.941,1180.15L762.941,907.385C763.041,815.93 955.527,811.982 953.943,907.385L953.943,1554.9C955.232,1627.2 894.425,1623.03 893.825,1554.9L893.825,930.917C894.979,881.846 830.296,886.381 829.778,930.917L829.778,1180.15C829.808,1228.86 812.355,1260.47 762.941,1261.54L-5377.07,1248.2C-5403.42,1249.54 -5463.21,1321.77 -5501.29,1363.93Z"/>
                </g>
                <g transform="matrix(1,0,0,1,23351.5,-6567.31)">
                    <path d="M608.644,1261.54L608.644,1206.78L743.025,1206.78C758.32,1206.48 762.577,1198.39 762.941,1180.15L762.941,907.385C763.041,815.93 955.527,811.982 953.943,907.385L953.943,1554.9C955.232,1627.2 894.425,1623.03 893.825,1554.9L893.825,930.917C894.979,881.846 830.296,886.381 829.778,930.917L829.778,1180.15C829.808,1228.86 812.355,1260.47 762.941,1261.54L608.644,1261.54Z"/>
                </g>
            </g>
        </g>
    </g>
</svg>
