<?xml version="1.0" encoding="UTF-8" standalone="no"?>
<!DOCTYPE svg PUBLIC "-//W3C//DTD SVG 1.1//EN" "http://www.w3.org/Graphics/SVG/1.1/DTD/svg11.dtd">
<svg width="100%" height="100%" viewBox="0 0 2313 3134" version="1.1" xmlns="http://www.w3.org/2000/svg" xmlns:xlink="http://www.w3.org/1999/xlink" xml:space="preserve" xmlns:serif="http://www.serif.com/" style="fill-rule:evenodd;clip-rule:evenodd;stroke-linejoin:round;stroke-miterlimit:2;">
    <g transform="matrix(1,0,0,1,-27738.6,-7885.56)">
        <g transform="matrix(1,0,0,1,35720.6,20937.7)">
            <g transform="matrix(-2.50605,-6.08456e-16,-6.08456e-16,2.50605,-4096.89,-14214.4)">
                <path d="M1521.87,1682.79C1511.45,1690.18 1499.3,1693.87 1485.44,1693.84L1478.63,1693.83L1474.35,1688.7L1459.24,1670.59C1455.31,1670.23 1451.48,1668.89 1447.79,1666.58L1446.3,1665.64C1445.66,1666.13 1445.07,1666.61 1444.53,1667.08C1443.31,1668.16 1442.55,1668.91 1442.25,1669.34C1440.86,1673.98 1438.62,1678.38 1435.53,1682.51C1432.65,1686.38 1429.08,1689.97 1424.83,1693.26L1423.56,1694.24L1422.22,1694.88L1386.17,1712.11L1384.92,1712.71L1383.32,1713.09C1374.23,1715.29 1365.97,1714.22 1358.57,1709.91C1351.9,1706.02 1346.52,1699.69 1342.44,1690.91L1342.42,1690.86L1283.23,1562.69C1277.85,1554.31 1271.81,1548.71 1265.13,1545.92C1258.81,1543.28 1251.37,1542.96 1242.81,1544.96L1167.45,1580.97L1161.45,1583.84L1155.31,1581.08C1142.71,1575.42 1137.43,1566.44 1139.48,1554.12C1140.84,1545.96 1146.39,1537.1 1156.11,1527.56L1156.96,1526.84L1219.07,1474.33L1219.86,1473.66L1220.29,1473.37C1221.54,1472.53 1222.17,1472.02 1222.2,1471.84C1222.33,1471.01 1221.79,1469.53 1220.57,1467.4L1165.93,1400.24C1159.74,1392.66 1151.94,1387.01 1142.53,1383.31C1132.63,1379.41 1120.82,1377.61 1107.11,1377.91C1101.19,1378.03 1095.89,1376.7 1091.24,1373.93L1091.25,1373.92C1086.57,1371.11 1082.92,1367.05 1080.32,1361.74L1080.22,1361.66L1048.93,1296.17L1045.62,1297.8C1049.51,1308.26 1053.78,1319.28 1058.06,1330.32C1067.28,1354.09 1076.54,1378 1083.78,1401.39C1089.12,1418.6 1094.61,1437.36 1100.24,1457.66C1105.89,1477.98 1111.75,1500.07 1117.82,1523.91L1118.2,1525.37L1118.25,1527.15C1118.6,1539.98 1114.23,1555.16 1101.83,1569.99C1092.63,1580.98 1078.85,1591.92 1059.02,1601.56L1058.96,1601.59C1049.9,1605.92 1041.79,1606.13 1035.38,1603.77C1030.66,1602.02 1026.95,1598.97 1024.35,1595.03C1021.94,1591.35 1020.64,1587.05 1020.55,1582.51C1020.4,1575.14 1023.5,1566.84 1030.39,1560L1031.47,1558.93L1032.44,1558.27C1041.73,1551.98 1047.55,1545.97 1049.89,1540.24C1051.62,1535.99 1051.21,1531.4 1048.65,1526.45L1048.64,1526.46L1003.49,1444.91C994.742,1430.92 987.583,1418.36 982.025,1407.24C976.262,1395.71 972.352,1385.92 970.298,1377.89L970.138,1377.03L965.805,1354.48C965.132,1355.92 964.289,1357.28 963.276,1358.55L962.767,1359.19L962.041,1359.89C951.282,1370.29 942.02,1379.73 934.267,1388.2C928.431,1394.58 923.544,1400.3 919.61,1405.36C919.26,1410.2 917.171,1414.95 913.337,1419.61C909.45,1424.34 903.519,1429.02 895.548,1433.65L895.418,1433.72L894.429,1434.18L843.731,1457.72C839.061,1459.95 834.089,1460.57 828.827,1459.59C827.278,1459.3 825.73,1458.87 824.182,1458.3C806.273,1467.07 791.818,1473.92 780.826,1478.86C767.575,1484.82 758.639,1488.27 754.03,1489.22L749.711,1490.1L745.664,1488.46C736.331,1484.67 726.804,1477.85 717.095,1468C710.247,1461.06 703.258,1452.57 696.125,1442.53L666.836,1454.5L663.967,1455.67L660.91,1455.58C656.045,1455.43 651.573,1453.49 647.563,1450.26C642.057,1445.81 636.93,1438.08 633.39,1430.2C629.849,1422.31 627.561,1413.54 627.753,1407.07C627.896,1402.26 629.27,1397.92 632.114,1394.4L633.878,1392.21L636.139,1390.91C644.624,1386.03 651.57,1381.81 656.972,1378.28C659.903,1376.36 662.469,1374.58 664.67,1372.95C665.862,1359.48 667.304,1348.64 668.99,1340.42C671.474,1328.29 675.174,1320.09 680.082,1315.81L681.557,1314.52L683.427,1313.65L747.817,1283.54C750.302,1281.04 752.747,1278.8 755.14,1276.83C756.564,1275.67 758.025,1274.55 759.517,1273.49L770.297,1219.7L770.518,1218.59C771.861,1213.84 774.443,1209.87 778.25,1206.73L778.301,1206.7L778.675,1206.4C776.523,1202.43 775.435,1197.85 775.414,1192.67L775.408,1191.44L775.553,1190.48L781.743,1149.11L781.754,1149.12C782.559,1143.2 784.743,1138.18 788.301,1134.09C788.9,1133.39 789.532,1132.74 790.189,1132.12L759.131,1108.23L757.519,1106.99L756.331,1105.38C753.395,1101.4 751.326,1096.97 750.125,1092.11C749.604,1089.99 749.259,1087.82 749.086,1085.58L669.74,1018.83L668.957,1018.17L668.203,1017.32C659.099,1006.95 652.525,996.69 648.489,986.534C644.118,975.542 642.688,964.714 644.202,954.063L644.227,954.068L691.656,567.898C685.464,561.901 680.176,554.661 676.727,547.024C673.7,540.323 672.005,533.238 672.171,526.229C672.354,518.485 674.694,510.97 679.791,504.242C684.042,498.635 690.146,493.745 698.45,489.997C753.934,464.95 851.467,457.526 944.25,469.147C1027.26,479.543 1107.41,505.302 1151.93,547.492C1158.12,553.353 1162.5,559.426 1165.37,565.549C1170.32,576.125 1170.79,586.57 1168.17,596.347C1165.7,605.49 1160.54,613.779 1153.88,620.805L1153.85,620.769C1148.7,626.197 1142.59,630.938 1136.15,634.753L1092.72,1009.62C1095.46,1010.68 1098.15,1012.1 1100.8,1013.86C1107.79,1018.52 1114.33,1025.61 1120.43,1035.13L1120.93,1035.91L1121.29,1036.66L1131.79,1058.63L1132.77,1060.7L1133.07,1063.02C1133.69,1067.94 1133.07,1072.42 1131.2,1076.46C1134.96,1075.41 1138.76,1075 1142.62,1075.23L1142.67,1075.21C1145.53,1075.38 1148.35,1075.9 1151.13,1076.77L1160.33,1071.95L1160.84,1071.71C1168.05,1068.31 1175.23,1068.53 1182.37,1072.35L1185.75,1068.61C1189.38,1064.6 1193.69,1061.09 1198.69,1058.09C1203.41,1055.26 1208.72,1052.89 1214.6,1051L1215.68,1050.65L1216.2,1050.55C1226.31,1048.53 1235.61,1050.89 1244.08,1057.63C1250.76,1062.96 1256.64,1071.17 1261.7,1082.28L1262.22,1083.4L1262.31,1083.68C1265.22,1092.38 1266.07,1100.12 1264.85,1106.9L1277.34,1100.93L1279.75,1099.79L1282.52,1099.59C1292.32,1098.89 1301.14,1102.9 1308.97,1111.61C1314.81,1118.11 1320.17,1127.53 1325.03,1139.86L1325.02,1139.86C1329.35,1149.63 1331.58,1158.07 1331.71,1165.15C1331.78,1169.09 1331.28,1172.65 1330.22,1175.84C1333.17,1177 1336.06,1178.55 1338.87,1180.49C1346.66,1185.88 1353.63,1194.38 1359.76,1206L1360.21,1206.86L1360.42,1207.38C1364.57,1217.89 1365.61,1227.79 1363.52,1237.06C1361.38,1246.59 1356.11,1254.93 1347.74,1262.07L1346.24,1263.36L1344.6,1264.14L1317.63,1277.03C1307.69,1285.73 1301.94,1293.76 1300.36,1301.12C1299.1,1307 1300.87,1313.15 1305.65,1319.54C1336.81,1340.27 1369.88,1372.51 1404.88,1416.26C1440.14,1460.35 1477.55,1516.33 1517.1,1584.17L1519.02,1587.48L1518.99,1591.53C1518.97,1593.25 1518.84,1594.89 1518.6,1596.42L1521.08,1599.66L1521.47,1600.16L1522.02,1601.09C1524.5,1605.3 1525.71,1609.66 1525.63,1614.16L1525.58,1614.19C1525.57,1614.73 1525.54,1615.27 1525.5,1615.8L1543.87,1635.84L1550.32,1642.87L1546.37,1651.53C1540.13,1665.21 1531.96,1675.63 1521.87,1682.79ZM1234.09,1135.78C1234.1,1135.34 1234.11,1134.91 1234.14,1134.49L1233.85,1134.62C1231.75,1135.54 1232.03,1135.11 1231.5,1135.47L1223.04,1141.06L1234.09,1135.78ZM1218.43,1143.27L1222.55,1141.3L1216.63,1136.41C1216.65,1137.38 1216.64,1138.31 1216.57,1139.22C1216.52,1140.08 1216.42,1140.93 1216.3,1141.75C1217.01,1142.22 1217.72,1142.72 1218.43,1143.27ZM1045.54,1117.79L1091.61,1095.19L1087.44,1087.74C1085.62,1084.48 1084.02,1082.37 1082.64,1081.42L1039.41,1101.44C1038.49,1102.08 1037.78,1102.58 1037.29,1102.95C1032.55,1106.56 1029.8,1109.69 1029.05,1112.32C1028.66,1113.67 1029.22,1115.46 1030.71,1117.67L1031.02,1118.12C1031.76,1118.81 1032.81,1119.24 1034.16,1119.41C1037.04,1119.77 1040.84,1119.23 1045.54,1117.79Z" style="fill:white;"/>
                <path d="M1485.44,1679.46C1506.99,1679.49 1522.92,1668.18 1533.25,1645.54C1533.25,1645.54 1525.31,1636.88 1509.42,1619.56C1511.72,1615.78 1511.79,1612.05 1509.62,1608.39C1509.62,1608.39 1507.16,1605.18 1502.25,1598.76C1503.79,1597.29 1504.57,1594.83 1504.6,1591.4C1426.22,1456.94 1356.61,1369.9 1295.76,1330.29C1278.45,1309.21 1283.12,1287.37 1309.78,1264.76C1309.78,1264.76 1319.31,1260.21 1338.38,1251.1C1350.25,1240.96 1353.13,1228.17 1347.02,1212.72C1337,1193.72 1325.21,1185.57 1311.64,1188.27C1311.64,1188.27 1301.62,1193.12 1281.57,1202.82C1280.22,1201.06 1278.47,1200.16 1276.3,1200.14C1276.3,1200.14 1253.25,1211.03 1207.15,1232.83C1205.29,1232.79 1204.34,1231.05 1204.31,1227.61C1204.31,1227.61 1214.13,1222.81 1233.76,1213.2C1235.24,1210.57 1235.39,1207.04 1234.23,1202.59C1234.23,1202.59 1247.09,1196.45 1272.82,1184.15C1276.69,1187.54 1280.57,1189.61 1284.44,1190.37C1284.44,1190.37 1293.69,1185.83 1312.19,1176.76C1319.21,1172.14 1319.03,1161.62 1311.64,1145.19C1303.14,1123.65 1293.78,1113.24 1283.57,1113.97C1283.57,1113.97 1272.54,1119.24 1250.47,1129.78C1248.22,1132.23 1247.9,1137.11 1249.51,1144.43C1249.51,1144.43 1238.1,1149.88 1215.28,1160.78C1210.49,1154.29 1206.09,1151.49 1202.09,1152.38C1202.09,1152.38 1196.18,1154.97 1184.36,1160.16C1180.81,1159.78 1179.5,1157.75 1180.42,1154.08C1180.42,1154.08 1186.52,1151.17 1198.72,1145.33C1202.89,1142.48 1203.33,1135.93 1200.06,1125.67C1200.06,1125.67 1205.41,1122.88 1216.13,1117.3C1216.13,1117.3 1218.6,1119.34 1223.56,1123.44C1223.73,1123.32 1229.55,1120.77 1241.01,1115.79C1250.89,1111.79 1253.43,1102.62 1248.62,1088.28C1240.41,1070.26 1230.54,1062.41 1219.02,1064.7C1209.3,1067.84 1201.77,1072.36 1196.44,1078.26C1196.44,1078.26 1196.7,1081.71 1197.23,1088.61C1197.23,1088.61 1193.1,1090.59 1184.83,1094.53C1178.62,1085.31 1172.67,1082.04 1166.99,1084.72C1166.99,1084.72 1161.92,1087.37 1151.77,1092.68C1145.1,1088.94 1138.45,1088.54 1131.82,1091.49C1131.82,1091.49 1104.82,1104.74 1050.81,1131.23C1036.52,1135.84 1026.21,1134.54 1019.88,1127.33C1009.82,1114.11 1013.87,1101.33 1032.02,1089C1032.02,1089 1047.51,1081.83 1078.49,1067.49C1086.58,1065.1 1093.76,1069.51 1100.04,1080.72C1113.47,1077.69 1119.71,1072.4 1118.75,1064.86C1118.75,1064.86 1115.25,1057.54 1108.25,1042.89C1098.19,1027.17 1087.71,1020.19 1076.79,1021.93C1076.79,1021.93 1092.1,889.825 1122.71,625.605C1147.75,613.891 1170.68,585.068 1142.03,557.913C1052.58,473.152 804.786,457.785 704.395,503.101C674.302,516.684 687.286,547.168 706.873,562.012C706.873,562.012 690.741,693.362 658.476,956.062C656.164,972.325 663.022,989.578 679.051,1007.82C679.051,1007.82 707.207,1031.5 763.519,1078.88C762.811,1085.89 764.286,1091.87 767.944,1096.83C767.944,1096.83 780.709,1106.65 806.238,1126.28C808.046,1129.02 808.061,1133.39 806.282,1139.41C800.243,1140.95 796.821,1144.89 796.015,1151.24C796.015,1151.24 793.953,1165.02 789.827,1192.6C789.846,1198.29 792.012,1202.1 796.325,1204.03C796.325,1204.03 795.327,1207.73 793.333,1215.14C788.452,1216.28 785.475,1218.74 784.402,1222.53C784.402,1222.53 780.415,1242.42 772.44,1282.22C766.951,1285.48 761.563,1289.89 756.278,1295.47C711.777,1316.28 689.527,1326.68 689.527,1326.68C684.658,1330.93 680.985,1348.83 678.51,1380.38C672.046,1385.96 660.312,1393.64 643.31,1403.43C638.13,1409.85 651.394,1440.88 661.346,1441.18C688.085,1430.25 701.454,1424.78 701.454,1424.78C719.427,1452.19 735.977,1468.96 751.104,1475.11C758.398,1473.61 782.801,1462.64 824.312,1442.2C829.395,1445.71 833.834,1446.54 837.631,1444.69C871.428,1429 888.326,1421.16 888.326,1421.16C901.382,1413.57 906.854,1406.92 904.744,1401.2C914.211,1388.08 929.974,1370.86 952.032,1349.54C954.814,1346.05 953.318,1338.57 947.546,1327.12C954.97,1323.34 958.682,1321.45 958.682,1321.45C962.68,1326.92 964.679,1329.66 964.679,1329.66C966.998,1329.94 970.504,1329.07 975.199,1327.06C981.245,1358.54 984.267,1374.28 984.267,1374.28C987.944,1388.65 998.459,1409.69 1015.81,1437.41C1046.11,1492.13 1061.26,1519.49 1061.26,1519.49C1070.82,1537.49 1063.9,1554.4 1040.52,1570.23C1029.36,1581.32 1035.79,1596.7 1052.76,1588.61C1092.55,1569.26 1104.34,1545.17 1103.85,1527.52C1091.79,1480.18 1080.51,1439.56 1070,1405.66C1058.34,1368.03 1041.1,1328.37 1027.66,1290.57C1046.35,1281.41 1055.7,1276.83 1055.7,1276.83C1080.73,1329.23 1093.25,1355.43 1093.25,1355.43C1095.94,1360.93 1100.46,1363.62 1106.79,1363.49C1138.06,1362.82 1161.49,1372.04 1177.1,1391.15C1213.99,1436.5 1232.43,1459.17 1232.43,1459.17C1239.15,1470.28 1237.78,1479 1228.33,1485.35C1186.93,1520.36 1166.23,1537.86 1166.23,1537.86C1151.16,1552.64 1149.49,1562.67 1161.22,1567.94C1212.3,1543.53 1237.84,1531.33 1237.84,1531.33C1262.29,1525.01 1281.61,1533.09 1295.78,1555.54C1335.58,1641.72 1355.47,1684.81 1355.47,1684.81C1361.1,1696.9 1369.25,1701.66 1379.94,1699.07C1403.97,1687.59 1415.99,1681.84 1415.99,1681.84C1422.48,1676.81 1426.63,1671.25 1428.44,1665.17C1430.33,1659.33 1437.23,1653.26 1449.16,1646.97C1453.35,1651.88 1455.45,1654.34 1455.45,1654.34C1459.01,1656.57 1462.26,1656.86 1465.21,1655.22C1478.7,1671.38 1485.44,1679.46 1485.44,1679.46ZM1040.25,1242.59C1032.47,1233.88 1022.46,1231.74 1010.23,1236.17L1016.67,1253.85L1040.25,1242.59ZM967.642,1259.29C969.855,1275.99 970.962,1284.34 970.962,1284.34C970.962,1284.34 967.582,1285.96 960.821,1289.19C960.821,1289.19 958.244,1285 953.086,1276.62C953.086,1276.62 949.474,1278.23 942.248,1281.45C944.291,1275.87 952.755,1268.48 967.642,1259.29Z"/>
                <path d="M871.491,1217.82C867.48,1223.73 860.11,1226.54 849.384,1226.28L853.129,1206.18C853.129,1206.18 850.905,1205.63 846.455,1204.53L842.392,1225.74C838.217,1225.21 833.641,1224.32 828.665,1223.06C828.665,1223.06 830.043,1216.29 832.8,1202.75C832.8,1202.75 825.566,1201.13 811.099,1197.89C797.002,1195.1 803.563,1192.66 830.78,1190.56C830.78,1190.56 833.618,1177.67 839.294,1151.89C842.988,1148.51 848.923,1147.17 857.101,1147.88C857.101,1147.88 858.618,1141.16 861.652,1127.72C861.43,1128.33 864.444,1128.85 870.696,1129.28C870.696,1129.28 884.3,1120.82 911.509,1103.89C911.509,1103.89 910.808,1101.46 909.404,1096.6C876.088,1087.83 833.972,1084.65 783.057,1087.07C774.234,1082.23 775.518,1078.15 786.906,1074.85C828.655,1071.71 871.979,1075 916.878,1084.72C916.878,1084.72 951.875,1064.31 1021.87,1023.48C923.768,998.353 821.063,983.757 713.758,979.697C686.889,969.507 710.102,962.568 783.395,958.88L828.645,546.704C876.232,545.824 921.225,548.664 963.842,555.972L904.688,971.678C891.231,974.416 884.504,975.785 884.504,975.785C916.923,980.016 946.81,985.113 974.162,991.078C1007.93,751.782 1028.24,610.129 1033.62,572.704C1050.45,577.992 1066.87,584.141 1082.92,591.213C1091.46,594.982 1097.03,602.823 1097.71,606.812C1111.72,598.204 1105.37,586.448 1098.42,582.579C1033.4,546.4 942.9,528.708 826.931,529.51C800.637,529.689 737.279,529.369 719.472,543.404C696.648,528.331 708.593,516.911 728.172,511.455C810.131,488.618 906.816,490.44 1018.23,516.919C1082.61,536.926 1121.45,557.474 1134.75,578.563C1146.26,596.805 1123.16,609.136 1107.54,614.037C1073.91,885.932 1057.09,1021.88 1057.09,1021.88C970.19,1070.78 926.742,1095.23 926.742,1095.23C926.771,1103.98 926.785,1108.36 926.785,1108.36C897.651,1123.66 883.084,1131.32 883.084,1131.32C879.859,1145.31 878.248,1152.31 878.248,1152.31C868.753,1152.24 864.006,1152.2 864.006,1152.2C876.767,1156.89 882.353,1162.07 880.765,1167.72C876.579,1188.4 875.007,1196.17 875.007,1196.17C871.162,1196.77 838.434,1193.97 846.971,1199.09C855.68,1201.39 872.696,1205.14 872.696,1205.14C871.892,1213.59 871.491,1217.82 871.491,1217.82ZM826.251,1124.72C824.243,1139.31 821.591,1144.39 818.298,1139.93C820.257,1134.13 820.545,1128.45 819.162,1122.91C819.162,1122.91 810.086,1115.02 791.936,1099.24C824.038,1115.74 840.089,1123.99 840.089,1123.99C830.864,1124.47 826.251,1124.72 826.251,1124.72ZM1329.58,1230.93C1330.54,1233.72 1331.37,1236.66 1332.07,1239.77C1334.96,1236.14 1335.93,1231.18 1334.99,1224.88C1331.97,1211.72 1324.82,1205.45 1313.55,1206.07C1313.55,1206.07 1305.8,1209.88 1290.3,1217.52C1300.49,1241.4 1298.45,1240.76 1284.19,1215.59C1284.19,1215.59 1281.65,1216.81 1276.58,1219.23C1286.74,1239.52 1291.82,1249.67 1291.82,1249.67C1297.74,1246.61 1300.7,1245.08 1300.7,1245.08C1319.95,1235.65 1329.58,1230.93 1329.58,1230.93ZM1277.99,1179.45C1281.32,1181.09 1282.98,1181.92 1282.98,1181.92C1278.59,1175.74 1274.63,1168.4 1271.08,1159.92C1271.08,1159.92 1279.49,1155.79 1296.3,1147.52C1297.69,1146.65 1299.86,1148.04 1302.79,1151.69C1295.87,1134.68 1288.79,1126.64 1281.58,1127.57C1281.58,1127.57 1274.72,1130.84 1261.01,1137.39C1261.73,1142.76 1263.49,1151.03 1266.29,1162.21C1266.29,1162.21 1264.29,1159.7 1260.28,1154.7C1260.28,1154.7 1248.17,1160.49 1223.94,1172.06C1228.92,1179.88 1230.85,1183.69 1229.74,1183.48C1254.24,1172.46 1266.49,1166.96 1266.49,1166.96C1272.43,1174.72 1276.27,1178.88 1277.99,1179.45ZM1190.92,1183.34C1201.84,1217.65 1200.91,1222.71 1188.14,1198.51C1188.14,1198.51 1184.23,1190.57 1176.42,1174.7C1191.83,1166.88 1199.53,1162.96 1199.53,1162.96C1203.11,1163.17 1207.52,1166.37 1212.76,1172.56C1198.2,1179.75 1190.92,1183.34 1190.92,1183.34ZM1214.26,1088.8C1223.35,1082.96 1231.54,1082.96 1238.84,1088.82C1230.64,1074.44 1219.66,1071.73 1205.89,1080.69C1205.89,1080.69 1205.84,1085.9 1205.75,1096.33C1205.75,1096.33 1200.58,1099.03 1190.24,1104.43C1192.86,1109.41 1194.16,1111.9 1194.16,1111.9C1205.24,1106.6 1210.78,1103.96 1210.78,1103.96C1214.54,1107 1216.42,1108.53 1216.42,1108.53C1214.98,1095.37 1214.26,1088.8 1214.26,1088.8ZM725.927,1353.61C722.541,1370.23 738.805,1415.86 758.791,1460.05C726.789,1404.04 705.395,1351.05 702.974,1333.09C740.036,1316.99 758.566,1308.95 758.566,1308.95C765.916,1324.81 769.59,1332.75 769.59,1332.75C740.481,1346.65 725.927,1353.61 725.927,1353.61ZM710.274,1393.26C703.484,1380.12 695.807,1359.22 693.259,1345.34C690.047,1355.41 688.71,1370.23 689.248,1389.82C689.248,1389.82 677.629,1396.64 654.389,1410.28C655.043,1415.76 657.245,1420.13 660.996,1423.38C692.826,1408.41 705.632,1402.38 705.632,1402.38C711.327,1400.47 712.692,1397.53 710.274,1393.26ZM716.216,1420.18C722.484,1431.62 732.925,1446.47 747.536,1464.73C734.586,1454.3 721.492,1439.45 708.257,1420.18C712.125,1418.39 714.779,1418.39 716.216,1420.18ZM1051.08,1381.64C1051.08,1381.64 1063.58,1426.64 1088.59,1516.65C1095.12,1535.3 1086.51,1553.49 1062.76,1571.21C1048.96,1576.24 1050.05,1572.72 1066.02,1560.65C1083.33,1545.57 1084.22,1527.15 1068.69,1505.4C1068.69,1505.4 1046.31,1465.8 1001.55,1386.61C996.488,1380.71 992.825,1372.07 990.562,1360.72C987.899,1329.88 984.153,1298.63 979.323,1266.96C970.688,1240.69 961.809,1219.21 952.688,1202.53C928.411,1182.83 939.401,1157.5 957.384,1151.67C980.358,1144.21 1000.89,1165.62 989.982,1186.44C980.399,1165.86 971.94,1164.04 963.411,1167.4C953.735,1171.21 950.557,1178.14 954.735,1187.18C957.225,1192.57 961.666,1199.46 966.121,1208.91C981.727,1246.64 990.649,1274.73 992.889,1293.17C994.502,1299.23 996.597,1304.44 999.17,1308.78C1014.9,1335.34 1031.31,1326.5 1051.08,1381.64ZM1401.52,1668.16C1402.9,1673.95 1403.59,1676.85 1403.59,1676.85C1402.32,1677.44 1405.37,1676.1 1412.74,1672.83C1419.32,1668.85 1420.98,1664.6 1417.72,1660.07C1406.92,1665.46 1401.52,1668.16 1401.52,1668.16ZM1392.2,1672.7C1395.84,1677.42 1397.65,1679.78 1397.65,1679.78C1398.91,1679.15 1395.95,1680.68 1388.78,1684.37C1381.55,1686.99 1377.2,1685.61 1375.72,1680.22C1386.71,1675.21 1392.2,1672.7 1392.2,1672.7ZM1380.79,1654.62C1383.77,1658.47 1387.04,1660.72 1390.58,1661.36C1377.14,1667.82 1368.34,1670.41 1364.18,1669.13C1364.18,1669.13 1346.98,1631.67 1312.57,1556.76C1306.93,1543.95 1299.08,1535.24 1289.02,1530.65C1314.29,1527.16 1331.87,1538.6 1341.75,1564.97C1367.78,1624.73 1380.79,1654.62 1380.79,1654.62ZM1484.79,1647.83C1495.83,1661.41 1498.09,1668.29 1491.55,1668.48C1491.55,1668.48 1484.34,1659.92 1469.94,1642.81C1463.26,1646.23 1458.64,1644.75 1456.05,1638.38C1456.05,1638.38 1465.22,1630.77 1483.55,1615.55C1488.1,1621.12 1489.56,1625.39 1487.94,1628.33C1481.67,1635.02 1478.54,1638.36 1478.54,1638.36C1481.93,1639.78 1486.33,1638.14 1491.76,1633.43C1487.12,1643.03 1484.79,1647.83 1484.79,1647.83ZM1474.68,1612.18C1447.92,1633.54 1443.07,1636.2 1460.15,1620.16C1470.33,1609.69 1472.68,1600.85 1467.19,1593.61C1467.19,1593.61 1463.07,1586.93 1454.84,1573.56C1454.84,1573.56 1450.99,1575.63 1443.28,1579.78C1443.28,1579.78 1389.1,1509.59 1280.74,1369.21C1277.34,1366.17 1279.92,1362.63 1288.47,1358.6C1288.47,1358.6 1283.23,1354.64 1272.76,1346.72C1264.94,1341.34 1259.43,1334.86 1256.21,1327.3C1247.52,1298.61 1252.66,1274.12 1271.63,1253.84C1273.72,1251.85 1273.32,1248.36 1270.41,1243.35C1270.41,1243.35 1249.53,1252.75 1207.76,1271.55C1207.76,1271.55 1195.28,1245.91 1170.32,1194.63C1167.17,1186.25 1162.86,1183 1157.37,1184.9C1157.37,1184.9 1123.66,1200.78 1056.25,1232.53C1056.25,1232.53 1069.89,1261.07 1097.17,1318.16C1102.34,1325.84 1110.65,1329.25 1122.12,1328.39C1146.34,1327.91 1175.26,1353.87 1190.22,1372.31C1201.86,1386.67 1222.02,1411.52 1250.7,1446.88C1266.62,1468.03 1267.77,1484.44 1254.14,1496.09C1254.14,1496.09 1242.62,1505.29 1219.58,1523.68C1219.58,1523.68 1224.15,1523.11 1233.29,1521.97C1233.29,1521.97 1213.05,1532.22 1172.55,1552.72C1165.33,1557.16 1164.85,1554.96 1171.14,1546.13C1171.14,1546.13 1195.23,1526.08 1243.43,1485.99C1253.5,1476.46 1252.19,1464.28 1239.48,1449.47C1239.48,1449.47 1220.23,1425.89 1181.73,1378.73C1167.75,1361.61 1143.66,1352.06 1122,1349.89C1111.34,1350.33 1104.95,1348.77 1102.83,1344.52C1102.83,1344.52 1083.51,1310.61 1051.64,1239.57C1044.3,1229.79 1037.69,1224.41 1031.82,1223.43C1113.62,1184.12 1154.51,1164.47 1154.51,1164.47C1159.1,1162.67 1163.24,1165.31 1166.94,1172.37C1192.54,1224.5 1205.35,1250.56 1205.35,1250.56C1208.99,1244.67 1210.81,1241.72 1210.81,1241.72C1244.89,1225.67 1261.94,1217.64 1261.94,1217.64C1265.75,1216.98 1269.8,1219.43 1274.09,1224.98C1285.04,1247.89 1290.52,1259.34 1290.52,1259.34C1291.1,1263.62 1289.39,1267.78 1285.41,1271.82C1271.59,1293.51 1270.72,1313.19 1282.81,1330.84C1285.4,1334.85 1288.37,1337.93 1291.73,1340.08C1363.7,1406.89 1426.98,1488.65 1481.58,1585.35C1486.73,1595.12 1484.43,1604.06 1474.68,1612.18ZM1150.87,1137.28C1157.53,1143.71 1163.66,1145.46 1169.28,1142.53C1169.28,1142.53 1166.41,1136.52 1160.67,1124.5C1160.85,1124.41 1166.68,1121.63 1178.13,1116.15C1181.97,1114.55 1186.8,1117.89 1192.61,1126.19C1185.8,1109.96 1179.61,1101.84 1174.06,1101.83C1174.06,1101.83 1168.66,1104.53 1157.85,1109.92C1157.85,1109.92 1157.25,1112.52 1156.04,1117.71C1149.13,1106.59 1141.25,1102.4 1132.39,1105.14C1135.63,1103.59 1110.79,1115.35 1057.88,1140.39C1049.93,1143.4 1043.39,1144.22 1038.29,1142.83C1038.29,1142.83 1024.91,1141.15 998.159,1137.78C998.159,1137.78 1005.62,1137.22 1020.53,1136.09C993.952,1118.02 1000.1,1097.94 1024.93,1081.45C1035.49,1074.43 1082.21,1046.65 1088.59,1055.48C1092.11,1059.58 1097.26,1060.23 1104.05,1057.43C1097.6,1043.86 1090.27,1036.98 1082.08,1036.79C1041.44,1040.22 971.124,1098.38 945.93,1129.86C953.162,1128.41 962.771,1129.93 974.754,1134.43C952.815,1131.25 930.667,1140.71 920.912,1160.88C915.704,1171.65 905.846,1192.03 891.336,1222.03C883.959,1230 869.458,1233.93 847.834,1233.81C847.834,1233.81 831.197,1232.31 797.923,1229.29C792.153,1265.49 789.269,1283.6 789.269,1283.6C783.983,1289.39 778.573,1295.21 773.039,1301.04C804.787,1368.45 820.662,1402.16 820.662,1402.16C822.466,1396.07 821,1386.96 816.264,1374.85C813.153,1366.38 813.865,1360.39 818.401,1356.87C858.962,1338.7 881.339,1326.39 885.534,1319.95C894.677,1309.34 905.113,1301.01 916.845,1294.96C916.341,1302.52 919.868,1313.52 927.427,1327.97C932.037,1337.43 932.62,1343.95 929.174,1347.55C862.48,1396.25 829.134,1420.61 829.134,1420.61C829.924,1428.58 832.181,1432.57 835.901,1432.6C867.999,1418.18 884.048,1410.98 884.048,1410.98C892.921,1404.74 896.932,1399.14 896.08,1394.16C925.588,1363.22 940.341,1347.75 940.341,1347.75C945.24,1343.84 945.618,1338.36 941.474,1331.29C936.08,1321.77 932.144,1313.62 929.667,1306.85C925.126,1294.45 922.551,1279.06 960.877,1253.86C885.572,1289.84 812.13,1325.62 812.13,1325.62C823.213,1304.99 927.321,1250.87 949.417,1239.46C942.824,1228.43 850.716,1267.31 839.63,1271.65C831.614,1273.74 828.232,1270.28 829.482,1261.28C830.874,1251.16 831.57,1246.09 831.57,1246.09C855.311,1246.05 867.181,1246.03 867.181,1246.03C884.787,1243.81 896.117,1237.59 901.169,1227.37C922.126,1185.3 932.604,1164.26 932.604,1164.26C942.09,1146.46 956.508,1139.46 975.858,1143.25C1023.91,1153.05 1047.93,1157.95 1047.93,1157.95C1052.34,1159.15 1057.14,1158.82 1062.33,1156.95C1076.31,1151.41 1137.99,1124.84 1150.87,1137.28Z" style="fill:white;"/>
            </g>
        </g>
    </g>
</svg>
