<?xml version="1.0" encoding="UTF-8" standalone="no"?>
<!DOCTYPE svg PUBLIC "-//W3C//DTD SVG 1.1//EN" "http://www.w3.org/Graphics/SVG/1.1/DTD/svg11.dtd">
<svg width="100%" height="100%" viewBox="0 0 505 229" version="1.1" xmlns="http://www.w3.org/2000/svg" xmlns:xlink="http://www.w3.org/1999/xlink" xml:space="preserve" xmlns:serif="http://www.serif.com/" style="fill-rule:evenodd;clip-rule:evenodd;stroke-linejoin:round;stroke-miterlimit:2;">
    <g transform="matrix(1,0,0,1,-1232.68,-362.681)">
        <g transform="matrix(1,0,0,1,-162.402,-0.312016)">
            <g transform="matrix(0.576891,0,0,0.582657,1030.59,-49.3785)">
                <path d="M631.81,1024.57L643.933,1024.57L643.933,1056.32L753.254,1056.32L753.254,1024.57L765.485,1024.57L765.485,1099.66L753.254,1099.66L753.254,1068.02L643.933,1068.02L643.933,1099.66L631.81,1099.66L631.81,1024.57Z" style="fill:rgb(197,165,63);fill-rule:nonzero;"/>
                <path d="M778.359,1056.21L904.738,1056.21L904.738,1067.91L790.696,1067.91L790.696,1099.66L778.466,1099.66L778.359,1056.21ZM912.033,1024.35L912.033,1036.15L778.359,1036.15L778.359,1024.46L912.033,1024.35Z" style="fill:rgb(197,165,63);fill-rule:nonzero;"/>
                <path d="M940.141,1024.57L1051.07,1024.57L1040.34,1036.37L940.141,1036.37C938.711,1036.37 937.352,1036.62 936.065,1037.12C934.777,1037.62 933.669,1038.32 932.739,1039.21C931.809,1040.1 931.076,1041.16 930.539,1042.38C930.003,1043.59 929.735,1044.88 929.735,1046.24C929.735,1047.6 930.003,1048.88 930.539,1050.1C931.076,1051.32 931.809,1052.37 932.739,1053.26C933.669,1054.16 934.777,1054.87 936.065,1055.41C937.352,1055.95 938.711,1056.21 940.141,1056.21L973.506,1056.21L973.614,1056C976.546,1056 979.371,1056.54 982.089,1057.61C984.807,1058.68 987.203,1060.17 989.277,1062.06C991.351,1063.96 993.014,1066.23 994.266,1068.87C995.517,1071.52 996.143,1074.45 996.143,1077.67C996.143,1080.82 995.535,1083.71 994.319,1086.36C993.103,1089.01 991.476,1091.3 989.438,1093.23C987.399,1095.16 984.986,1096.68 982.196,1097.79C979.407,1098.89 976.474,1099.45 973.399,1099.45L917.505,1099.45L917.505,1087.76L973.399,1087.76C974.829,1087.76 976.188,1087.49 977.476,1086.95C978.763,1086.41 979.872,1085.7 980.802,1084.81C981.731,1083.91 982.464,1082.86 983.001,1081.64C983.537,1080.42 983.805,1079.14 983.805,1077.78C983.805,1074.99 982.804,1072.65 980.802,1070.75C978.799,1068.86 976.403,1067.91 973.614,1067.91L939.927,1067.91C936.994,1067.91 934.187,1067.35 931.505,1066.25C928.823,1065.14 926.427,1063.62 924.317,1061.69C922.207,1059.76 920.526,1057.48 919.275,1054.87C918.023,1052.26 917.397,1049.46 917.397,1046.45L917.397,1046.02C917.397,1043.16 918.005,1040.43 919.221,1037.82C920.437,1035.2 922.064,1032.92 924.102,1030.95C926.141,1028.98 928.537,1027.43 931.29,1026.28C934.044,1025.14 936.994,1024.57 940.141,1024.57ZM999.683,1099.34L999.791,1099.13L1010.41,1087.54L1133.57,1087.54L1133.57,1099.34L999.683,1099.34ZM1039.38,1056L1127.03,1056L1127.03,1067.69L1028.65,1067.69L1039.38,1056ZM1068.45,1024.03L1133.68,1024.03L1133.68,1035.72L1057.72,1035.72C1060.01,1033.22 1062.07,1030.97 1063.89,1028.96C1065.72,1026.96 1067.24,1025.32 1068.45,1024.03Z" style="fill:rgb(197,165,63);fill-rule:nonzero;"/>
                <path d="M1146.55,1099.13L1146.55,1024.14L1268.21,1080.89L1268.21,1024.57L1280.44,1024.57L1280.44,1099.66C1280.44,1099.66 1280.28,1099.59 1279.96,1099.45C1279.64,1099.31 1278.92,1098.97 1277.81,1098.43C1276.71,1097.89 1275.01,1097.09 1272.72,1096.02C1270.43,1094.94 1267.32,1093.48 1263.38,1091.62C1259.45,1089.76 1254.53,1087.45 1248.63,1084.7C1242.73,1081.94 1235.56,1078.6 1227.12,1074.67C1218.68,1070.73 1208.85,1066.14 1197.62,1060.88C1186.39,1055.62 1173.48,1049.6 1158.89,1042.8L1158.89,1099.13L1146.55,1099.13Z" style="fill:rgb(197,165,63);fill-rule:nonzero;"/>
                <path d="M1312.84,1024.57L1423.77,1024.57L1413.04,1036.37L1312.84,1036.37C1311.41,1036.37 1310.05,1036.62 1308.77,1037.12C1307.48,1037.62 1306.37,1038.32 1305.44,1039.21C1304.51,1040.1 1303.78,1041.16 1303.24,1042.38C1302.7,1043.59 1302.44,1044.88 1302.44,1046.24C1302.44,1047.6 1302.7,1048.88 1303.24,1050.1C1303.78,1051.32 1304.51,1052.37 1305.44,1053.26C1306.37,1054.16 1307.48,1054.87 1308.77,1055.41C1310.05,1055.95 1311.41,1056.21 1312.84,1056.21L1346.21,1056.21L1346.31,1056C1349.25,1056 1352.07,1056.54 1354.79,1057.61C1357.51,1058.68 1359.9,1060.17 1361.98,1062.06C1364.05,1063.96 1365.71,1066.23 1366.97,1068.87C1368.22,1071.52 1368.84,1074.45 1368.84,1077.67C1368.84,1080.82 1368.24,1083.71 1367.02,1086.36C1365.8,1089.01 1364.18,1091.3 1362.14,1093.23C1360.1,1095.16 1357.69,1096.68 1354.9,1097.79C1352.11,1098.89 1349.17,1099.45 1346.1,1099.45L1290.2,1099.45L1290.2,1087.76L1346.1,1087.76C1347.53,1087.76 1348.89,1087.49 1350.18,1086.95C1351.46,1086.41 1352.57,1085.7 1353.5,1084.81C1354.43,1083.91 1355.16,1082.86 1355.7,1081.64C1356.24,1080.42 1356.51,1079.14 1356.51,1077.78C1356.51,1074.99 1355.51,1072.65 1353.5,1070.75C1351.5,1068.86 1349.1,1067.91 1346.31,1067.91L1312.63,1067.91C1309.69,1067.91 1306.89,1067.35 1304.21,1066.25C1301.52,1065.14 1299.13,1063.62 1297.02,1061.69C1294.91,1059.76 1293.23,1057.48 1291.98,1054.87C1290.72,1052.26 1290.1,1049.46 1290.1,1046.45L1290.1,1046.02C1290.1,1043.16 1290.71,1040.43 1291.92,1037.82C1293.14,1035.2 1294.77,1032.92 1296.8,1030.95C1298.84,1028.98 1301.24,1027.43 1303.99,1026.28C1306.75,1025.14 1309.69,1024.57 1312.84,1024.57ZM1372.38,1099.34L1372.49,1099.13L1383.11,1087.54L1506.27,1087.54L1506.27,1099.34L1372.38,1099.34ZM1412.08,1056L1499.73,1056L1499.73,1067.69L1401.35,1067.69L1412.08,1056ZM1441.15,1024.03L1506.38,1024.03L1506.38,1035.72L1430.42,1035.72C1432.71,1033.22 1434.77,1030.97 1436.59,1028.96C1438.42,1026.96 1439.94,1025.32 1441.15,1024.03Z" style="fill:rgb(197,165,63);fill-rule:nonzero;"/>
            </g>
            <g transform="matrix(1,0,0,1,82.7714,-259.798)">
                <g transform="matrix(1.11373,0,0,1.11373,-208.49,-73.4559)">
                    <path d="M1566.52,625.146L1636.75,695.374L1566.52,765.602L1496.29,695.374L1566.52,625.146Z" style="fill:rgb(197,165,63);"/>
                </g>
                <g transform="matrix(1.11373,0,0,1.11373,-151.738,-73.4559)">
                    <path d="M1546.14,645.529L1566.52,625.146L1636.75,695.374L1566.52,765.602L1546.14,745.219L1595.99,695.374L1546.14,645.529Z" style="fill:rgb(197,165,63);"/>
                </g>
            </g>
        </g>
    </g>
</svg>
