<?xml version="1.0" encoding="UTF-8" standalone="no"?>
<!DOCTYPE svg PUBLIC "-//W3C//DTD SVG 1.1//EN" "http://www.w3.org/Graphics/SVG/1.1/DTD/svg11.dtd">
<svg width="100%" height="100%" viewBox="0 0 505 264" version="1.1" xmlns="http://www.w3.org/2000/svg" xmlns:xlink="http://www.w3.org/1999/xlink" xml:space="preserve" xmlns:serif="http://www.serif.com/" style="fill-rule:evenodd;clip-rule:evenodd;stroke-linejoin:round;stroke-miterlimit:2;">
    <g transform="matrix(1,0,0,1,-593.403,-872.827)">
        <g transform="matrix(1,0,0,1,-719.841,249.346)">
            <g transform="matrix(0.25342,0,0,0.182886,1231.52,650.475)">
                <g transform="matrix(107.283,0,0,107.283,446.451,1274.74)">
                    <path d="M0.04,-0L0.04,-0.062L0.135,-0.087L0.118,-0.062L0.118,-0.637L0.139,-0.611L0.04,-0.635L0.04,-0.697L0.319,-0.702L0.319,-0.64L0.222,-0.611L0.241,-0.638L0.241,-0.382L0.221,-0.402L0.569,-0.402L0.55,-0.382L0.55,-0.637L0.569,-0.611L0.472,-0.635L0.472,-0.697L0.75,-0.702L0.75,-0.64L0.655,-0.611L0.672,-0.638L0.672,-0.062L0.655,-0.087L0.75,-0.062L0.75,-0L0.472,-0L0.472,-0.062L0.566,-0.087L0.55,-0.062L0.55,-0.333L0.569,-0.313L0.221,-0.313L0.241,-0.333L0.241,-0.062L0.225,-0.087L0.319,-0.062L0.319,-0L0.04,-0Z" style="fill-rule:nonzero;"/>
                </g>
                <g transform="matrix(107.283,0,0,107.283,531.216,1274.74)">
                    <path d="M0.319,-0.64L0.227,-0.612L0.241,-0.632L0.241,-0.068L0.227,-0.086L0.319,-0.062L0.319,-0L0.04,-0L0.04,-0.062L0.131,-0.086L0.118,-0.068L0.118,-0.632L0.135,-0.612L0.04,-0.635L0.04,-0.697L0.319,-0.702L0.319,-0.64Z" style="fill-rule:nonzero;"/>
                </g>
                <g transform="matrix(107.283,0,0,107.283,569.707,1274.74)">
                    <path d="M0.373,0.011C0.308,0.011 0.251,-0.003 0.202,-0.03C0.153,-0.057 0.115,-0.097 0.088,-0.15C0.061,-0.203 0.048,-0.268 0.048,-0.346C0.048,-0.423 0.061,-0.489 0.088,-0.544C0.115,-0.599 0.154,-0.641 0.204,-0.67C0.255,-0.699 0.315,-0.713 0.385,-0.713C0.423,-0.713 0.462,-0.709 0.503,-0.7C0.544,-0.692 0.586,-0.678 0.628,-0.661L0.619,-0.489L0.545,-0.489L0.524,-0.608L0.543,-0.59C0.518,-0.598 0.492,-0.605 0.466,-0.611C0.44,-0.616 0.416,-0.619 0.393,-0.619C0.349,-0.619 0.311,-0.608 0.279,-0.588C0.247,-0.567 0.222,-0.537 0.205,-0.497C0.188,-0.456 0.18,-0.407 0.18,-0.348C0.18,-0.265 0.198,-0.2 0.234,-0.154C0.269,-0.108 0.321,-0.084 0.387,-0.084C0.408,-0.084 0.43,-0.087 0.453,-0.091C0.476,-0.096 0.5,-0.103 0.525,-0.112L0.51,-0.086L0.51,-0.285L0.53,-0.263L0.432,-0.28L0.432,-0.344L0.7,-0.349L0.7,-0.284L0.611,-0.263L0.624,-0.285L0.624,-0.044C0.579,-0.026 0.535,-0.012 0.493,-0.003C0.45,0.006 0.41,0.011 0.373,0.011Z" style="fill-rule:nonzero;"/>
                </g>
                <g transform="matrix(107.283,0,0,107.283,647.32,1274.74)">
                    <path d="M0.04,-0L0.04,-0.062L0.135,-0.087L0.118,-0.062L0.118,-0.637L0.139,-0.611L0.04,-0.635L0.04,-0.697L0.319,-0.702L0.319,-0.64L0.222,-0.611L0.241,-0.638L0.241,-0.382L0.221,-0.402L0.569,-0.402L0.55,-0.382L0.55,-0.637L0.569,-0.611L0.472,-0.635L0.472,-0.697L0.75,-0.702L0.75,-0.64L0.655,-0.611L0.672,-0.638L0.672,-0.062L0.655,-0.087L0.75,-0.062L0.75,-0L0.472,-0L0.472,-0.062L0.566,-0.087L0.55,-0.062L0.55,-0.333L0.569,-0.313L0.221,-0.313L0.241,-0.333L0.241,-0.062L0.225,-0.087L0.319,-0.062L0.319,-0L0.04,-0Z" style="fill-rule:nonzero;"/>
                </g>
                <g transform="matrix(107.283,0,0,107.283,732.085,1274.74)">
                </g>
                <g transform="matrix(107.283,0,0,107.283,752.112,1274.74)">
                    <path d="M0.04,-0L0.04,-0.062L0.132,-0.086L0.118,-0.068L0.118,-0.637L0.136,-0.611L0.04,-0.635L0.04,-0.697L0.239,-0.702L0.538,-0.702L0.539,-0.528L0.465,-0.528L0.447,-0.627L0.47,-0.613L0.221,-0.613L0.241,-0.633L0.241,-0.378L0.221,-0.396L0.462,-0.396L0.462,-0.307L0.221,-0.307L0.241,-0.327L0.241,-0.068L0.225,-0.086L0.338,-0.062L0.338,-0L0.04,-0Z" style="fill-rule:nonzero;"/>
                </g>
                <g transform="matrix(107.283,0,0,107.283,809.258,1274.74)">
                    <path d="M0.04,-0L0.04,-0.062L0.135,-0.087L0.118,-0.062L0.118,-0.637L0.141,-0.61L0.04,-0.635L0.04,-0.697L0.246,-0.702L0.35,-0.702C0.428,-0.702 0.487,-0.686 0.527,-0.653C0.567,-0.62 0.587,-0.573 0.587,-0.512C0.587,-0.456 0.57,-0.41 0.536,-0.374C0.502,-0.338 0.448,-0.316 0.376,-0.309L0.376,-0.323C0.402,-0.321 0.424,-0.317 0.44,-0.309C0.457,-0.301 0.471,-0.29 0.482,-0.276C0.493,-0.263 0.503,-0.246 0.513,-0.227L0.594,-0.068L0.559,-0.09L0.648,-0.062L0.648,-0L0.498,-0L0.407,-0.194C0.395,-0.221 0.384,-0.241 0.374,-0.256C0.364,-0.27 0.353,-0.28 0.339,-0.285C0.324,-0.291 0.304,-0.293 0.278,-0.293L0.22,-0.293L0.241,-0.311L0.241,-0.062L0.224,-0.087L0.33,-0.062L0.33,-0L0.04,-0ZM0.241,-0.348L0.22,-0.379L0.307,-0.379C0.358,-0.379 0.396,-0.389 0.423,-0.41C0.449,-0.431 0.462,-0.462 0.462,-0.503C0.462,-0.539 0.452,-0.566 0.43,-0.585C0.409,-0.604 0.377,-0.614 0.334,-0.614L0.22,-0.614L0.241,-0.633L0.241,-0.348Z" style="fill-rule:nonzero;"/>
                </g>
                <g transform="matrix(107.283,0,0,107.283,880.505,1274.74)">
                    <path d="M0.484,-0.18L0.557,-0.18L0.556,-0L0.04,-0L0.04,-0.062L0.135,-0.087L0.118,-0.062L0.118,-0.637L0.135,-0.612L0.04,-0.635L0.04,-0.697L0.239,-0.702L0.545,-0.702L0.545,-0.529L0.471,-0.529L0.452,-0.631L0.476,-0.613L0.221,-0.613L0.241,-0.633L0.241,-0.381L0.221,-0.401L0.468,-0.401L0.468,-0.315L0.221,-0.315L0.241,-0.337L0.241,-0.069L0.221,-0.089L0.488,-0.089L0.464,-0.069L0.484,-0.18Z" style="fill-rule:nonzero;"/>
                </g>
                <g transform="matrix(107.283,0,0,107.283,943.576,1274.74)">
                    <path d="M0.664,0.187C0.64,0.187 0.614,0.18 0.586,0.167C0.557,0.154 0.523,0.134 0.482,0.106C0.441,0.079 0.389,0.044 0.326,0.001L0.355,0.011C0.294,0.01 0.24,-0.003 0.194,-0.03C0.148,-0.057 0.112,-0.097 0.086,-0.149C0.061,-0.202 0.048,-0.266 0.048,-0.343C0.048,-0.404 0.056,-0.458 0.072,-0.504C0.088,-0.55 0.111,-0.589 0.141,-0.62C0.17,-0.651 0.205,-0.674 0.245,-0.69C0.286,-0.705 0.33,-0.713 0.378,-0.713C0.425,-0.713 0.469,-0.706 0.508,-0.691C0.547,-0.676 0.58,-0.653 0.608,-0.624C0.636,-0.595 0.658,-0.559 0.673,-0.515C0.688,-0.472 0.696,-0.422 0.696,-0.364C0.696,-0.297 0.685,-0.237 0.664,-0.186C0.642,-0.136 0.613,-0.094 0.574,-0.063C0.536,-0.031 0.491,-0.01 0.44,0.001L0.443,-0.014C0.483,0.01 0.517,0.029 0.544,0.045C0.571,0.06 0.594,0.071 0.613,0.078C0.632,0.085 0.649,0.089 0.666,0.089C0.682,0.089 0.699,0.086 0.716,0.079C0.732,0.073 0.751,0.063 0.773,0.051L0.817,0.126C0.785,0.145 0.757,0.16 0.734,0.171C0.71,0.181 0.687,0.187 0.664,0.187ZM0.18,-0.347C0.18,-0.285 0.188,-0.235 0.203,-0.196C0.218,-0.158 0.24,-0.129 0.268,-0.111C0.297,-0.093 0.33,-0.084 0.367,-0.084C0.407,-0.084 0.441,-0.094 0.471,-0.113C0.5,-0.132 0.523,-0.161 0.54,-0.202C0.556,-0.242 0.564,-0.295 0.564,-0.359C0.564,-0.419 0.556,-0.469 0.54,-0.507C0.524,-0.545 0.502,-0.573 0.474,-0.591C0.445,-0.609 0.412,-0.618 0.372,-0.618C0.334,-0.618 0.3,-0.609 0.271,-0.59C0.242,-0.571 0.22,-0.542 0.204,-0.502C0.188,-0.463 0.18,-0.411 0.18,-0.347Z" style="fill-rule:nonzero;"/>
                </g>
                <g transform="matrix(107.283,0,0,107.283,1023.32,1274.74)">
                    <path d="M0.445,-0.697L0.723,-0.702L0.723,-0.64L0.631,-0.612L0.645,-0.643L0.645,-0.271C0.645,-0.24 0.643,-0.211 0.637,-0.183C0.631,-0.155 0.622,-0.129 0.609,-0.106C0.596,-0.082 0.579,-0.062 0.558,-0.044C0.537,-0.026 0.511,-0.013 0.48,-0.003C0.448,0.006 0.411,0.011 0.368,0.011C0.315,0.011 0.271,0.004 0.237,-0.009C0.203,-0.022 0.176,-0.04 0.157,-0.061C0.138,-0.083 0.125,-0.106 0.117,-0.13C0.109,-0.155 0.104,-0.178 0.102,-0.201C0.1,-0.224 0.1,-0.243 0.1,-0.259L0.1,-0.643L0.114,-0.613L0.022,-0.635L0.022,-0.697L0.3,-0.702L0.3,-0.64L0.209,-0.612L0.222,-0.643L0.222,-0.259C0.222,-0.242 0.223,-0.225 0.225,-0.208C0.226,-0.191 0.229,-0.175 0.234,-0.16C0.239,-0.145 0.247,-0.132 0.258,-0.12C0.269,-0.109 0.283,-0.1 0.301,-0.093C0.319,-0.087 0.342,-0.084 0.37,-0.084C0.398,-0.084 0.422,-0.087 0.44,-0.094C0.459,-0.101 0.474,-0.11 0.485,-0.123C0.496,-0.135 0.505,-0.149 0.51,-0.165C0.515,-0.181 0.519,-0.198 0.52,-0.216C0.522,-0.234 0.523,-0.252 0.523,-0.271L0.523,-0.643L0.535,-0.615L0.445,-0.635L0.445,-0.697Z" style="fill-rule:nonzero;"/>
                </g>
                <g transform="matrix(107.283,0,0,107.283,1102.12,1274.74)">
                    <path d="M0.484,-0.18L0.557,-0.18L0.556,-0L0.04,-0L0.04,-0.062L0.135,-0.087L0.118,-0.062L0.118,-0.637L0.135,-0.612L0.04,-0.635L0.04,-0.697L0.239,-0.702L0.545,-0.702L0.545,-0.529L0.471,-0.529L0.452,-0.631L0.476,-0.613L0.221,-0.613L0.241,-0.633L0.241,-0.381L0.221,-0.401L0.468,-0.401L0.468,-0.315L0.221,-0.315L0.241,-0.337L0.241,-0.069L0.221,-0.089L0.488,-0.089L0.464,-0.069L0.484,-0.18Z" style="fill-rule:nonzero;"/>
                </g>
                <g transform="matrix(107.283,0,0,107.283,1167.87,1274.74)">
                    <path d="M0.493,-0.697L0.751,-0.702L0.751,-0.64L0.655,-0.611L0.673,-0.638L0.673,-0L0.532,-0L0.203,-0.572L0.22,-0.573L0.22,-0.062L0.201,-0.088L0.298,-0.062L0.298,-0L0.04,-0L0.04,-0.062L0.137,-0.088L0.118,-0.062L0.118,-0.637L0.131,-0.614L0.04,-0.635L0.04,-0.697L0.264,-0.702L0.589,-0.14L0.571,-0.14L0.571,-0.638L0.59,-0.612L0.493,-0.635L0.493,-0.697Z" style="fill-rule:nonzero;"/>
                </g>
                <g transform="matrix(107.283,0,0,107.283,1251.41,1274.74)">
                    <path d="M0.344,0.011C0.29,0.011 0.24,-0.003 0.195,-0.03C0.15,-0.057 0.115,-0.097 0.088,-0.15C0.061,-0.204 0.048,-0.269 0.048,-0.347C0.048,-0.424 0.061,-0.489 0.087,-0.544C0.114,-0.599 0.151,-0.64 0.199,-0.669C0.247,-0.698 0.303,-0.713 0.367,-0.713C0.402,-0.713 0.437,-0.709 0.473,-0.7C0.51,-0.692 0.548,-0.679 0.589,-0.662L0.581,-0.489L0.508,-0.489L0.486,-0.609L0.507,-0.588C0.483,-0.598 0.459,-0.606 0.436,-0.611C0.412,-0.616 0.391,-0.618 0.371,-0.618C0.33,-0.618 0.296,-0.608 0.267,-0.587C0.239,-0.567 0.217,-0.538 0.202,-0.5C0.187,-0.461 0.18,-0.416 0.18,-0.363C0.18,-0.302 0.188,-0.252 0.205,-0.211C0.222,-0.17 0.245,-0.14 0.275,-0.12C0.304,-0.099 0.338,-0.089 0.375,-0.089C0.403,-0.089 0.432,-0.095 0.462,-0.107C0.493,-0.118 0.523,-0.136 0.553,-0.161L0.599,-0.089C0.559,-0.055 0.516,-0.03 0.473,-0.014C0.429,0.003 0.386,0.011 0.344,0.011Z" style="fill-rule:nonzero;"/>
                </g>
                <g transform="matrix(107.283,0,0,107.283,1315.97,1274.74)">
                    <path d="M0.179,-0L0.179,-0.062L0.277,-0.088L0.259,-0.062L0.259,-0.275L0.27,-0.232L0.062,-0.633L0.086,-0.613L0.003,-0.635L0.003,-0.697L0.274,-0.702L0.274,-0.64L0.179,-0.617L0.189,-0.639L0.343,-0.319L0.319,-0.319L0.475,-0.634L0.484,-0.612L0.387,-0.635L0.387,-0.697L0.643,-0.702L0.643,-0.64L0.559,-0.617L0.584,-0.636L0.372,-0.232L0.382,-0.275L0.382,-0.062L0.364,-0.088L0.462,-0.062L0.462,-0L0.179,-0Z" style="fill-rule:nonzero;"/>
                </g>
                <g transform="matrix(107.283,0,0,107.283,1385.22,1274.74)">
                </g>
                <g transform="matrix(107.283,0,0,107.283,1405.25,1274.74)">
                    <path d="M0.299,-0.255L0.216,-0.255L0.241,-0.275L0.241,-0.062L0.223,-0.086L0.341,-0.062L0.341,-0L0.04,-0L0.04,-0.062L0.138,-0.088L0.118,-0.062L0.118,-0.638L0.141,-0.611L0.04,-0.635L0.04,-0.697L0.244,-0.702L0.342,-0.702C0.396,-0.702 0.44,-0.693 0.475,-0.674C0.51,-0.656 0.535,-0.631 0.552,-0.599C0.569,-0.567 0.578,-0.53 0.578,-0.489C0.578,-0.444 0.567,-0.404 0.547,-0.369C0.527,-0.333 0.496,-0.305 0.455,-0.285C0.414,-0.265 0.362,-0.255 0.299,-0.255ZM0.323,-0.614L0.221,-0.614L0.241,-0.633L0.241,-0.324L0.216,-0.344L0.3,-0.344C0.349,-0.344 0.387,-0.357 0.413,-0.383C0.439,-0.408 0.452,-0.443 0.452,-0.486C0.452,-0.526 0.441,-0.557 0.419,-0.58C0.398,-0.602 0.365,-0.614 0.323,-0.614Z" style="fill-rule:nonzero;"/>
                </g>
                <g transform="matrix(107.283,0,0,107.283,1466.99,1274.74)">
                    <path d="M0.484,-0.18L0.557,-0.18L0.556,-0L0.04,-0L0.04,-0.062L0.135,-0.087L0.118,-0.062L0.118,-0.637L0.135,-0.612L0.04,-0.635L0.04,-0.697L0.239,-0.702L0.545,-0.702L0.545,-0.529L0.471,-0.529L0.452,-0.631L0.476,-0.613L0.221,-0.613L0.241,-0.633L0.241,-0.381L0.221,-0.401L0.468,-0.401L0.468,-0.315L0.221,-0.315L0.241,-0.337L0.241,-0.069L0.221,-0.089L0.488,-0.089L0.464,-0.069L0.484,-0.18Z" style="fill-rule:nonzero;"/>
                </g>
                <g transform="matrix(107.283,0,0,107.283,1532.74,1274.74)">
                    <path d="M0.04,-0L0.04,-0.062L0.135,-0.087L0.118,-0.062L0.118,-0.637L0.141,-0.61L0.04,-0.635L0.04,-0.697L0.246,-0.702L0.35,-0.702C0.428,-0.702 0.487,-0.686 0.527,-0.653C0.567,-0.62 0.587,-0.573 0.587,-0.512C0.587,-0.456 0.57,-0.41 0.536,-0.374C0.502,-0.338 0.448,-0.316 0.376,-0.309L0.376,-0.323C0.402,-0.321 0.424,-0.317 0.44,-0.309C0.457,-0.301 0.471,-0.29 0.482,-0.276C0.493,-0.263 0.503,-0.246 0.513,-0.227L0.594,-0.068L0.559,-0.09L0.648,-0.062L0.648,-0L0.498,-0L0.407,-0.194C0.395,-0.221 0.384,-0.241 0.374,-0.256C0.364,-0.27 0.353,-0.28 0.339,-0.285C0.324,-0.291 0.304,-0.293 0.278,-0.293L0.22,-0.293L0.241,-0.311L0.241,-0.062L0.224,-0.087L0.33,-0.062L0.33,-0L0.04,-0ZM0.241,-0.348L0.22,-0.379L0.307,-0.379C0.358,-0.379 0.396,-0.389 0.423,-0.41C0.449,-0.431 0.462,-0.462 0.462,-0.503C0.462,-0.539 0.452,-0.566 0.43,-0.585C0.409,-0.604 0.377,-0.614 0.334,-0.614L0.22,-0.614L0.241,-0.633L0.241,-0.348Z" style="fill-rule:nonzero;"/>
                </g>
                <g transform="matrix(107.283,0,0,107.283,1603.99,1274.74)">
                    <path d="M0.04,-0L0.04,-0.062L0.132,-0.086L0.118,-0.068L0.118,-0.637L0.136,-0.611L0.04,-0.635L0.04,-0.697L0.239,-0.702L0.538,-0.702L0.539,-0.528L0.465,-0.528L0.447,-0.627L0.47,-0.613L0.221,-0.613L0.241,-0.633L0.241,-0.378L0.221,-0.396L0.462,-0.396L0.462,-0.307L0.221,-0.307L0.241,-0.327L0.241,-0.068L0.225,-0.086L0.338,-0.062L0.338,-0L0.04,-0Z" style="fill-rule:nonzero;"/>
                </g>
                <g transform="matrix(107.283,0,0,107.283,1661.13,1274.74)">
                    <path d="M0.355,0.011C0.294,0.011 0.24,-0.002 0.194,-0.029C0.148,-0.056 0.112,-0.095 0.086,-0.148C0.061,-0.2 0.048,-0.265 0.048,-0.343C0.048,-0.404 0.056,-0.458 0.072,-0.504C0.088,-0.551 0.111,-0.589 0.14,-0.62C0.17,-0.651 0.204,-0.674 0.244,-0.69C0.284,-0.705 0.327,-0.713 0.375,-0.713C0.421,-0.713 0.464,-0.706 0.502,-0.691C0.541,-0.676 0.574,-0.653 0.602,-0.624C0.63,-0.595 0.651,-0.558 0.667,-0.515C0.682,-0.471 0.69,-0.421 0.69,-0.364C0.69,-0.285 0.675,-0.218 0.647,-0.162C0.619,-0.107 0.58,-0.064 0.53,-0.034C0.48,-0.004 0.422,0.011 0.355,0.011ZM0.364,-0.084C0.4,-0.084 0.433,-0.093 0.462,-0.111C0.491,-0.129 0.514,-0.158 0.532,-0.198C0.549,-0.238 0.558,-0.291 0.558,-0.358C0.558,-0.42 0.55,-0.471 0.534,-0.509C0.517,-0.547 0.495,-0.575 0.467,-0.592C0.439,-0.609 0.406,-0.618 0.369,-0.618C0.334,-0.618 0.301,-0.609 0.273,-0.592C0.244,-0.574 0.221,-0.546 0.205,-0.506C0.188,-0.467 0.18,-0.414 0.18,-0.347C0.18,-0.285 0.188,-0.235 0.203,-0.196C0.219,-0.157 0.24,-0.129 0.268,-0.111C0.296,-0.093 0.328,-0.084 0.364,-0.084Z" style="fill-rule:nonzero;"/>
                </g>
                <g transform="matrix(107.283,0,0,107.283,1740.14,1274.74)">
                    <path d="M0.04,-0L0.04,-0.062L0.135,-0.087L0.118,-0.062L0.118,-0.637L0.141,-0.61L0.04,-0.635L0.04,-0.697L0.246,-0.702L0.35,-0.702C0.428,-0.702 0.487,-0.686 0.527,-0.653C0.567,-0.62 0.587,-0.573 0.587,-0.512C0.587,-0.456 0.57,-0.41 0.536,-0.374C0.502,-0.338 0.448,-0.316 0.376,-0.309L0.376,-0.323C0.402,-0.321 0.424,-0.317 0.44,-0.309C0.457,-0.301 0.471,-0.29 0.482,-0.276C0.493,-0.263 0.503,-0.246 0.513,-0.227L0.594,-0.068L0.559,-0.09L0.648,-0.062L0.648,-0L0.498,-0L0.407,-0.194C0.395,-0.221 0.384,-0.241 0.374,-0.256C0.364,-0.27 0.353,-0.28 0.339,-0.285C0.324,-0.291 0.304,-0.293 0.278,-0.293L0.22,-0.293L0.241,-0.311L0.241,-0.062L0.224,-0.087L0.33,-0.062L0.33,-0L0.04,-0ZM0.241,-0.348L0.22,-0.379L0.307,-0.379C0.358,-0.379 0.396,-0.389 0.423,-0.41C0.449,-0.431 0.462,-0.462 0.462,-0.503C0.462,-0.539 0.452,-0.566 0.43,-0.585C0.409,-0.604 0.377,-0.614 0.334,-0.614L0.22,-0.614L0.241,-0.633L0.241,-0.348Z" style="fill-rule:nonzero;"/>
                </g>
                <g transform="matrix(107.283,0,0,107.283,1811.39,1274.74)">
                    <path d="M0.839,-0.64L0.744,-0.611L0.761,-0.643L0.761,-0.062L0.744,-0.087L0.839,-0.062L0.839,-0L0.57,-0L0.57,-0.062L0.669,-0.088L0.648,-0.062L0.648,-0.57L0.666,-0.569L0.469,-0.183L0.39,-0.178L0.2,-0.571L0.218,-0.571L0.218,-0.062L0.203,-0.086L0.296,-0.062L0.296,-0L0.04,-0L0.04,-0.062L0.136,-0.087L0.118,-0.062L0.118,-0.643L0.136,-0.612L0.04,-0.635L0.04,-0.697L0.269,-0.702L0.451,-0.3L0.436,-0.3L0.626,-0.697L0.839,-0.702L0.839,-0.64Z" style="fill-rule:nonzero;"/>
                </g>
                <g transform="matrix(107.283,0,0,107.283,1901.4,1274.74)">
                    <path d="M0.652,-0.059L0.619,-0.088L0.708,-0.062L0.708,-0L0.43,-0L0.43,-0.062L0.523,-0.086L0.511,-0.068L0.466,-0.208L0.486,-0.192L0.208,-0.192L0.224,-0.207L0.176,-0.07L0.172,-0.083L0.259,-0.062L0.259,-0L0.003,-0L0.003,-0.062L0.089,-0.087L0.061,-0.062L0.3,-0.7L0.425,-0.704L0.652,-0.059ZM0.24,-0.261L0.231,-0.278L0.465,-0.278L0.453,-0.258L0.34,-0.635L0.368,-0.634L0.24,-0.261Z" style="fill-rule:nonzero;"/>
                </g>
                <g transform="matrix(107.283,0,0,107.283,1973.47,1274.74)">
                    <path d="M0.493,-0.697L0.751,-0.702L0.751,-0.64L0.655,-0.611L0.673,-0.638L0.673,-0L0.532,-0L0.203,-0.572L0.22,-0.573L0.22,-0.062L0.201,-0.088L0.298,-0.062L0.298,-0L0.04,-0L0.04,-0.062L0.137,-0.088L0.118,-0.062L0.118,-0.637L0.131,-0.614L0.04,-0.635L0.04,-0.697L0.264,-0.702L0.589,-0.14L0.571,-0.14L0.571,-0.638L0.59,-0.612L0.493,-0.635L0.493,-0.697Z" style="fill-rule:nonzero;"/>
                </g>
                <g transform="matrix(107.283,0,0,107.283,2057.01,1274.74)">
                    <path d="M0.344,0.011C0.29,0.011 0.24,-0.003 0.195,-0.03C0.15,-0.057 0.115,-0.097 0.088,-0.15C0.061,-0.204 0.048,-0.269 0.048,-0.347C0.048,-0.424 0.061,-0.489 0.087,-0.544C0.114,-0.599 0.151,-0.64 0.199,-0.669C0.247,-0.698 0.303,-0.713 0.367,-0.713C0.402,-0.713 0.437,-0.709 0.473,-0.7C0.51,-0.692 0.548,-0.679 0.589,-0.662L0.581,-0.489L0.508,-0.489L0.486,-0.609L0.507,-0.588C0.483,-0.598 0.459,-0.606 0.436,-0.611C0.412,-0.616 0.391,-0.618 0.371,-0.618C0.33,-0.618 0.296,-0.608 0.267,-0.587C0.239,-0.567 0.217,-0.538 0.202,-0.5C0.187,-0.461 0.18,-0.416 0.18,-0.363C0.18,-0.302 0.188,-0.252 0.205,-0.211C0.222,-0.17 0.245,-0.14 0.275,-0.12C0.304,-0.099 0.338,-0.089 0.375,-0.089C0.403,-0.089 0.432,-0.095 0.462,-0.107C0.493,-0.118 0.523,-0.136 0.553,-0.161L0.599,-0.089C0.559,-0.055 0.516,-0.03 0.473,-0.014C0.429,0.003 0.386,0.011 0.344,0.011Z" style="fill-rule:nonzero;"/>
                </g>
                <g transform="matrix(107.283,0,0,107.283,2125.32,1274.74)">
                    <path d="M0.484,-0.18L0.557,-0.18L0.556,-0L0.04,-0L0.04,-0.062L0.135,-0.087L0.118,-0.062L0.118,-0.637L0.135,-0.612L0.04,-0.635L0.04,-0.697L0.239,-0.702L0.545,-0.702L0.545,-0.529L0.471,-0.529L0.452,-0.631L0.476,-0.613L0.221,-0.613L0.241,-0.633L0.241,-0.381L0.221,-0.401L0.468,-0.401L0.468,-0.315L0.221,-0.315L0.241,-0.337L0.241,-0.069L0.221,-0.089L0.488,-0.089L0.464,-0.069L0.484,-0.18Z" style="fill-rule:nonzero;"/>
                </g>
                <g transform="matrix(107.283,0,0,107.283,2191.07,1274.74)">
                </g>
            </g>
            <g transform="matrix(0.576891,0,0,0.582657,948.759,211.11)">
                <g transform="matrix(107.283,0,0,107.283,914.179,1099.66)">
                </g>
                <g transform="matrix(107.283,0,0,107.283,1024.53,1099.66)">
                </g>
                <g transform="matrix(107.283,0,0,107.283,1286.88,1099.66)">
                </g>
                <g transform="matrix(107.283,0,0,107.283,1397.23,1099.66)">
                </g>
                <g transform="matrix(107.283,0,0,107.283,1512.82,1099.66)">
                </g>
                <text x="625.373px" y="1099.66px" style="font-family:'abnes-Regular', 'abnes';font-size:107.283px;">HFN</text>
            </g>
            <g transform="matrix(1,0,0,1,0.935193,0.690572)">
                <g transform="matrix(1.11373,0,0,1.11373,-208.49,-73.4559)">
                    <path d="M1566.52,625.146L1636.75,695.374L1566.52,765.602L1496.29,695.374L1566.52,625.146Z" style="fill:rgb(16,24,32);"/>
                </g>
                <g transform="matrix(1.11373,0,0,1.11373,-151.738,-73.4559)">
                    <path d="M1546.14,645.529L1566.52,625.146L1636.75,695.374L1566.52,765.602L1546.14,745.219L1595.99,695.374L1546.14,645.529Z" style="fill:rgb(16,24,32);"/>
                </g>
            </g>
        </g>
    </g>
</svg>
